<svg width="42" height="48" fill="none" xmlns="http://www.w3.org/2000/svg"><g clip-path="url(#a)" fill="#FF6B09"><path d="M.813 20.613c0 .535-.813.535-.813 0C0 9.231 9.231 0 20.613 0 32 0 41.226 9.231 41.226 20.613c0 .535-.807.535-.807 0 0-7.693-12.643-7.698-12.643 0 0 .535-.832.535-.832 0 0-7.674-12.662-7.674-12.662 0 0 .535-.832.535-.832 0 0-7.66-12.637-7.713-12.637 0Zm12.71-2.988c.22-4.428.915-8.399 1.927-11.43.808-2.41 1.83-4.239 2.988-5.266-8.691.95-15.728 7.538-17.3 16.083 2.993-4.316 9.903-3.97 12.385.613Zm13.358-.2c-.224-4.257-.9-8.067-1.874-10.972-2.51-7.519-6.277-7.519-8.788 0-.973 2.905-1.645 6.715-1.874 10.973 2.701-4.589 9.835-4.589 12.536 0Zm13.207-.413C38.52 8.467 31.484 1.878 22.788.93c1.163 1.027 2.18 2.857 2.988 5.266 1.012 3.031 1.708 7.002 1.927 11.43 2.497-4.608 9.426-4.88 12.385-.613ZM17.908 30.045v-4.186c-.755.501-1.348 1.275-1.348 2.22 0 .92.603 1.528 1.348 1.966Zm.812 1.3c-1.445-.662-2.968-1.436-2.968-3.267 0-1.888 1.435-2.832 2.968-3.538v6.804ZM23.319 36.36v4.234c.764-.507 1.362-1.285 1.362-2.23 0-.928-.613-1.556-1.363-2.004Zm-.808-1.304c1.45.671 2.983 1.47 2.983 3.309 0 1.893-1.445 2.837-2.983 3.538v-6.847Z"/><path d="M23.319 21.095c3.328.769 6.75 3.26 6.75 6.983 0 3.188-5.388 3.07-5.388 0 0-.949-.598-1.727-1.362-2.229v5.957c3.08 1.007 6.759 2.812 6.759 6.56 0 3.727-3.421 6.214-6.76 6.978-.014 3.547-5.4 3.542-5.41-.005-1.898-.438-3.548-1.324-4.74-2.496-1.25-1.237-1.99-2.789-1.99-4.478 0-3.138 5.382-3.138 5.382 0 0 .94.593 1.713 1.348 2.215v-5.952c-3.056-.988-6.755-2.847-6.755-6.56 0-3.727 3.421-6.214 6.755-6.978.014-3.547 5.401-3.543 5.41.005Zm-4.599.01v.647c-3.168.628-6.759 2.657-6.759 6.316 0 3.519 3.942 5.095 6.76 5.966v7.864c-1.524-.696-2.97-1.635-2.97-3.533 0-2.073-3.766-2.073-3.766 0 0 1.465.652 2.818 1.752 3.898 1.397 1.382 3.09 2.04 4.983 2.414v.652c0 2.497 3.791 2.497 3.791 0v-.647c3.178-.633 6.754-2.662 6.754-6.317 0-3.552-3.932-5.08-6.754-5.97v-7.86c1.528.696 2.983 1.636 2.983 3.543 0 2.02 3.762 2.102 3.762 0 0-3.654-3.572-5.689-6.745-6.321v-.652c0-2.497-3.79-2.497-3.79 0Z"/></g><defs><clipPath id="a"><path fill="#fff" d="M0 0h42v48H0z"/></clipPath></defs></svg>