<svg width="406" height="472" viewBox="0 0 406 472" fill="none" xmlns="http://www.w3.org/2000/svg">
<path d="M423.789 322.005C418.291 309.679 410.707 297.542 399.617 283.522C371.653 248.332 363.122 169.86 363.027 169.108C362.648 165.344 359.994 162.239 356.487 161.11C352.884 159.981 348.998 161.016 346.439 163.838C313.072 201.193 327.101 258.87 334.684 281.923C336.77 288.227 339.045 295.66 340.655 303.187C352.978 364.064 329.186 391.633 323.593 397.184C318.19 398.689 314.493 397.937 311.08 394.267C299.326 381.377 295.44 339.13 300.938 284.087C302.076 272.89 301.791 262.822 300.179 253.413C288.584 185.759 246.07 142.362 235.247 127.143C205.482 83.1085 202.449 9.81166 202.354 9.15302C202.26 5.67165 200.269 2.56665 197.141 1.0612C194.107 -0.444256 190.411 -0.256073 187.567 1.71984C137.896 35.4985 142.162 116.887 149.081 162.333C150.693 172.871 153.821 183.598 159.224 197.147C178.467 245.604 155.433 308.174 155.243 308.739C155.053 309.303 154.864 309.773 154.769 310.338C151.83 325.769 146.901 334.99 141.403 334.99C140.835 334.99 140.266 334.896 139.602 334.708C132.872 333.296 129.365 326.145 129.27 319.935C128.891 239.676 48.4127 212.672 47.5596 212.389C43.9575 211.26 39.9763 212.295 37.5117 215.212C34.9523 218.129 34.4783 222.175 36.1846 225.562C37.1325 227.538 40.1658 236.194 38.0804 266.774C36.2794 294.249 31.2554 321.441 23.1981 347.504C4.05023 409.98 7.08356 469.164 7.27314 471.986C21.9971 632.23 252.252 660.308 388.904 570.029C403.881 560.149 416.11 548.859 425.115 536.439C475.545 466.811 445.875 372.25 423.789 322.005ZM73.5335 475.091C73.8178 480.266 69.8366 484.689 64.623 484.971H64.0543C59.0303 484.971 54.8595 481.113 54.5751 476.126C53.722 462.389 53.9116 447.993 54.9543 432.374C55.3335 427.199 59.8835 423.341 65.097 423.623C70.3106 423.999 74.2918 428.515 73.9126 433.69C72.869 448.558 72.6803 462.107 73.5335 475.091ZM78.1773 391.727C77.6086 396.525 73.5325 400.007 68.7929 400.007C68.4138 400.007 68.0346 400.007 67.5606 399.913C62.4419 399.254 58.745 394.643 59.3138 389.469L63.8638 353.149C64.5273 348.068 69.1721 344.399 74.4804 344.964C79.694 345.622 83.3908 350.327 82.7273 355.502L78.1773 391.727Z" fill="#3D3D3D"/>
<path d="M359.658 128.726C354.488 127.931 350.942 123.135 351.739 118.003C352.331 114.18 355.756 94.6093 365.05 84.7683C368.628 80.9736 374.617 80.776 378.45 84.3411C382.268 87.8921 382.462 93.8471 378.88 97.6418C374.946 101.809 371.595 113.735 370.475 120.871C369.675 125.948 364.904 129.511 359.658 128.726Z" fill="#3D3D3D"/>
<path d="M14.0849 175.594C12.2706 168.597 7.76232 157.056 3.43508 153.289C-0.503511 149.861 -0.896898 143.917 2.55541 140.012C5.9992 136.098 11.9834 135.698 15.9315 139.139C26.1462 148.028 31.483 167.173 32.4508 170.917C33.7466 175.948 30.6924 181.066 25.6287 182.361C20.453 183.653 15.375 180.541 14.0849 175.594Z" fill="#3D3D3D"/>
</svg>
