
<svg width="10" height="15" viewBox="0 0 16 20" fill="none" xmlns="http://www.w3.org/2000/svg"><g clip-path="url(#a)" fill="#FF6B09"><path d="M14.151 10.002c-.171-.383-.408-.76-.755-1.195-.873-1.093-1.14-3.531-1.143-3.554a.295.295 0 0 0-.204-.249.301.301 0 0 0-.314.085c-1.042 1.16-.604 2.952-.367 3.668.065.196.136.427.186.66.385 1.891-.358 2.748-.533 2.92-.169.047-.284.024-.39-.09-.368-.4-.49-1.713-.318-3.423a3.48 3.48 0 0 0-.023-.953C9.928 5.77 8.6 4.421 8.26 3.95 7.331 2.581 7.237.305 7.234.284A.286.286 0 0 0 7.07.033a.297.297 0 0 0-.3.02c-1.55 1.05-1.417 3.578-1.201 4.99.05.327.148.66.317 1.08.6 1.506-.119 3.45-.125 3.467-.006.017-.012.032-.015.05-.091.479-.245.765-.417.765a.205.205 0 0 1-.056-.008c-.21-.044-.32-.267-.323-.46-.012-2.492-2.526-3.331-2.553-3.34a.296.296 0 0 0-.314.088.286.286 0 0 0-.041.321c.03.062.124.33.06 1.28a10.87 10.87 0 0 1-.466 2.508 12.161 12.161 0 0 0-.497 3.867c.46 4.977 7.653 5.85 11.921 3.045.468-.307.85-.658 1.132-1.043 1.575-2.163.648-5.1-.042-6.661ZM3.21 14.757a.293.293 0 0 1-.279.307h-.017a.294.294 0 0 1-.297-.275c-.026-.426-.02-.874.012-1.359a.299.299 0 0 1 .317-.272.295.295 0 0 1 .275.313 9.39 9.39 0 0 0-.011 1.286Zm.145-2.59a.293.293 0 0 1-.293.258c-.012 0-.024 0-.039-.003a.295.295 0 0 1-.258-.325l.143-1.128a.299.299 0 0 1 .331-.254c.163.02.279.167.258.327l-.142 1.126Zm8.793-8.169a.293.293 0 0 1-.247-.333c.018-.118.125-.726.416-1.032a.298.298 0 0 1 .418-.013.29.29 0 0 1 .014.413c-.123.13-.228.5-.263.721a.296.296 0 0 1-.338.244ZM1.353 5.454c-.057-.217-.198-.576-.333-.693a.29.29 0 0 1-.028-.412.298.298 0 0 1 .418-.027c.32.276.486.87.516.987a.292.292 0 0 1-.213.355.297.297 0 0 1-.36-.21Z"/></g><defs><clipPath id="a"><path fill="#fff" transform="translate(.88)" d="M0 0h14.214v19.289H0z"/></clipPath></defs></svg>
=======
<svg   xmlns="http://www.w3.org/2000/svg"><path d="M423.789 322.005c-5.498-12.326-13.082-24.463-24.172-38.483-27.964-35.19-36.495-113.662-36.59-114.414-.379-3.764-3.033-6.869-6.54-7.998a9.609 9.609 0 0 0-10.048 2.728c-33.367 37.355-19.338 95.032-11.755 118.085 2.086 6.304 4.361 13.737 5.971 21.264 12.323 60.877-11.469 88.446-17.062 93.997-5.403 1.505-9.1.753-12.513-2.917-11.754-12.89-15.64-55.137-10.142-110.18 1.138-11.197.853-21.265-.759-30.674-11.595-67.654-54.109-111.051-64.932-126.27-29.765-44.034-32.798-117.331-32.893-117.99-.094-3.481-2.085-6.586-5.213-8.092-3.034-1.505-6.73-1.317-9.574.659-49.671 33.779-45.405 115.167-38.486 160.613 1.612 10.538 4.74 21.265 10.143 34.814 19.243 48.457-3.791 111.027-3.981 111.592-.19.564-.379 1.034-.474 1.599-2.939 15.431-7.868 24.652-13.366 24.652-.568 0-1.137-.094-1.801-.282-6.73-1.412-10.237-8.563-10.332-14.773-.379-80.259-80.857-107.263-81.71-107.546-3.602-1.129-7.584-.094-10.048 2.823-2.56 2.917-3.034 6.963-1.327 10.35.947 1.976 3.98 10.632 1.895 41.212-1.8 27.475-6.825 54.667-14.882 80.73C4.05 409.98 7.084 469.164 7.273 471.986c14.724 160.244 244.979 188.322 381.631 98.043 14.977-9.88 27.206-21.17 36.211-33.59 50.43-69.628 20.76-164.189-1.326-214.434ZM73.534 475.091c.284 5.175-3.697 9.598-8.911 9.88h-.569c-5.024 0-9.195-3.858-9.479-8.845-.853-13.737-.663-28.133.38-43.752.379-5.175 4.928-9.033 10.142-8.751 5.214.376 9.195 4.892 8.816 10.067-1.044 14.868-1.233 28.417-.38 41.401Zm4.643-83.364c-.568 4.798-4.645 8.28-9.384 8.28-.38 0-.758 0-1.232-.094-5.12-.659-8.816-5.27-8.247-10.444l4.55-36.32c.663-5.081 5.308-8.75 10.616-8.185 5.214.658 8.91 5.363 8.247 10.538l-4.55 36.225ZM359.658 128.726c-5.17-.795-8.716-5.591-7.919-10.723.592-3.823 4.017-23.394 13.311-33.235 3.578-3.794 9.567-3.992 13.4-.427a9.361 9.361 0 0 1 .43 13.3c-3.934 4.168-7.285 16.094-8.405 23.23-.8 5.077-5.571 8.64-10.817 7.855ZM14.085 175.594c-1.814-6.997-6.323-18.538-10.65-22.305-3.939-3.428-4.332-9.372-.88-13.277 3.444-3.914 9.428-4.314 13.377-.873 10.214 8.889 15.551 28.034 16.519 31.778 1.296 5.031-1.759 10.149-6.822 11.444-5.176 1.292-10.254-1.82-11.544-6.767Z" fill="#3D3D3D"/></svg>

