<svg width="10" height="15" viewBox="0 0 16 20" fill="none" xmlns="http://www.w3.org/2000/svg"><g clip-path="url(#a)" fill="#FF6B09"><path d="M14.151 10.002c-.171-.383-.408-.76-.755-1.195-.873-1.093-1.14-3.531-1.143-3.554a.295.295 0 0 0-.204-.249.301.301 0 0 0-.314.085c-1.042 1.16-.604 2.952-.367 3.668.065.196.136.427.186.66.385 1.891-.358 2.748-.533 2.92-.169.047-.284.024-.39-.09-.368-.4-.49-1.713-.318-3.423a3.48 3.48 0 0 0-.023-.953C9.928 5.77 8.6 4.421 8.26 3.95 7.331 2.581 7.237.305 7.234.284A.286.286 0 0 0 7.07.033a.297.297 0 0 0-.3.02c-1.55 1.05-1.417 3.578-1.201 4.99.05.327.148.66.317 1.08.6 1.506-.119 3.45-.125 3.467-.006.017-.012.032-.015.05-.091.479-.245.765-.417.765a.205.205 0 0 1-.056-.008c-.21-.044-.32-.267-.323-.46-.012-2.492-2.526-3.331-2.553-3.34a.296.296 0 0 0-.314.088.286.286 0 0 0-.041.321c.03.062.124.33.06 1.28a10.87 10.87 0 0 1-.466 2.508 12.161 12.161 0 0 0-.497 3.867c.46 4.977 7.653 5.85 11.921 3.045.468-.307.85-.658 1.132-1.043 1.575-2.163.648-5.1-.042-6.661ZM3.21 14.757a.293.293 0 0 1-.279.307h-.017a.294.294 0 0 1-.297-.275c-.026-.426-.02-.874.012-1.359a.299.299 0 0 1 .317-.272.295.295 0 0 1 .275.313 9.39 9.39 0 0 0-.011 1.286Zm.145-2.59a.293.293 0 0 1-.293.258c-.012 0-.024 0-.039-.003a.295.295 0 0 1-.258-.325l.143-1.128a.299.299 0 0 1 .331-.254c.163.02.279.167.258.327l-.142 1.126Zm8.793-8.169a.293.293 0 0 1-.247-.333c.018-.118.125-.726.416-1.032a.298.298 0 0 1 .418-.013.29.29 0 0 1 .014.413c-.123.13-.228.5-.263.721a.296.296 0 0 1-.338.244ZM1.353 5.454c-.057-.217-.198-.576-.333-.693a.29.29 0 0 1-.028-.412.298.298 0 0 1 .418-.027c.32.276.486.87.516.987a.292.292 0 0 1-.213.355.297.297 0 0 1-.36-.21Z"/></g><defs><clipPath id="a"><path fill="#fff" transform="translate(.88)" d="M0 0h14.214v19.289H0z"/></clipPath></defs></svg>