<svg width="80" height="29" fill="none" xmlns="http://www.w3.org/2000/svg"><path d="M11.187 4.372v11.703H7.861V11.51H3.326v4.564H0V4.372h3.326V8.77h4.535V4.372h3.326zM23.36 11.56c0 .023-.017.285-.05.787h-6.618c.134.468.392.83.772 1.086.392.245.88.368 1.462.368.436 0 .812-.061 1.125-.184a3.31 3.31 0 0 0 .974-.602l1.68 1.739c-.884.98-2.178 1.47-3.88 1.47-1.064 0-2-.2-2.805-.6-.807-.402-1.434-.96-1.882-1.673-.437-.713-.655-1.52-.655-2.424 0-.891.213-1.688.638-2.39a4.55 4.55 0 0 1 1.798-1.672c.761-.401 1.618-.602 2.57-.602.907 0 1.73.19 2.47.569.738.367 1.32.908 1.746 1.621.437.702.655 1.538.655 2.508zm-4.854-2.44c-.493 0-.907.14-1.243.418-.325.279-.532.657-.622 1.137h3.73c-.09-.48-.303-.858-.639-1.137-.325-.279-.734-.418-1.226-.418zM25.504 3.67h3.191v12.405h-3.191V3.67zM31.441 3.67h3.192v12.405h-3.192V3.67z" fill="#111518"/><path d="M2.815 24.528h.81v3.5h-.81v-3.5zm-1.59 3.5h-.81v-3.5h.81v3.5zm1.65-1.435h-1.71v-.685h1.71v.685zm3.223-.655h1.685v.63H6.098v-.63zm.06 1.44h1.905v.65h-2.71v-3.5h2.645v.65h-1.84v2.2zm3.45.65v-3.5h.81v2.84h1.755v.66H9.608zm3.917 0v-3.5h.81v2.84h1.755v.66h-2.565zm3.918 0v-3.5h.81v3.5h-.81zm3.69.06c-.28 0-.548-.036-.805-.11a1.916 1.916 0 0 1-.62-.295l.275-.61a2.023 2.023 0 0 0 1.155.365c.16 0 .289-.015.385-.045a.47.47 0 0 0 .22-.135.298.298 0 0 0 .07-.195.257.257 0 0 0-.11-.22.84.84 0 0 0-.29-.135 4.402 4.402 0 0 0-.4-.1 5.627 5.627 0 0 1-.435-.12 1.848 1.848 0 0 1-.395-.18.907.907 0 0 1-.295-.29.87.87 0 0 1-.11-.46c0-.2.054-.381.16-.545.11-.166.274-.298.49-.395.22-.1.495-.15.825-.15.22 0 .437.027.65.08.214.05.402.127.565.23l-.25.615a2.052 2.052 0 0 0-.97-.275c-.156 0-.285.019-.385.055a.445.445 0 0 0-.215.145.32.32 0 0 0-.065.2c0 .09.037.164.11.22a.9.9 0 0 0 .29.13c.12.034.252.067.395.1.147.034.292.072.435.115.147.044.28.102.4.175a.831.831 0 0 1 .405.745.946.946 0 0 1-.165.54 1.15 1.15 0 0 1-.495.395c-.216.1-.491.15-.825.15zm5.339-3.56h.81v3.5h-.81v-3.5zm-1.59 3.5h-.81v-3.5h.81v3.5zm1.65-1.435h-1.71v-.685h1.71v.685z" fill="#FF6B09"/><path d="M32.07 25.938h1.686v.63H32.07v-.63zm.06 1.44h1.906v.65h-2.71v-3.5h2.645v.65h-1.84v2.2zm3.45.65v-3.5h.67l2.065 2.52h-.325v-2.52h.8v3.5h-.665l-2.07-2.52h.325v2.52h-.8zm6.629.06a2.18 2.18 0 0 1-.766-.13 1.86 1.86 0 0 1-.604-.38 1.784 1.784 0 0 1-.4-.575 1.838 1.838 0 0 1-.14-.725c0-.263.046-.505.14-.725a1.75 1.75 0 0 1 1.014-.95c.234-.09.49-.135.77-.135.31 0 .589.052.836.155.25.104.46.254.63.45l-.52.48a1.238 1.238 0 0 0-.415-.295c-.15-.066-.314-.1-.49-.1-.17 0-.326.027-.466.08-.14.054-.261.13-.364.23-.1.1-.179.219-.235.355-.054.137-.08.289-.08.455 0 .164.026.314.08.45.056.137.135.257.235.36.103.1.223.177.36.23.14.054.293.08.46.08.16 0 .315-.025.465-.075.153-.053.301-.141.444-.265l.46.585c-.19.144-.411.254-.664.33-.25.077-.5.115-.75.115zm.674-.55v-1.315h.74v1.42l-.74-.105zm2.393.49v-3.5h.81v2.84h1.755v.66h-2.565zm3.917 0v-3.5h.81v3.5h-.81zm3.691.06c-.28 0-.548-.036-.805-.11a1.918 1.918 0 0 1-.62-.295l.275-.61a2.024 2.024 0 0 0 1.155.365c.16 0 .288-.015.385-.045a.469.469 0 0 0 .22-.135.298.298 0 0 0 .07-.195.257.257 0 0 0-.11-.22.84.84 0 0 0-.29-.135 4.394 4.394 0 0 0-.4-.1 5.651 5.651 0 0 1-.435-.12 1.85 1.85 0 0 1-.395-.18.908.908 0 0 1-.295-.29.87.87 0 0 1-.11-.46c0-.2.053-.381.16-.545.11-.166.273-.298.49-.395.22-.1.495-.15.825-.15.22 0 .437.027.65.08.213.05.402.127.565.23l-.25.615a2.048 2.048 0 0 0-.97-.275c-.157 0-.285.019-.385.055a.445.445 0 0 0-.215.145.32.32 0 0 0-.065.2c0 .09.037.164.11.22.073.054.17.097.29.13.12.034.252.067.395.1.147.034.292.072.435.115.147.044.28.102.4.175a.83.83 0 0 1 .405.745.946.946 0 0 1-.165.54 1.15 1.15 0 0 1-.495.395c-.217.1-.492.15-.825.15zm5.339-3.56h.81v3.5h-.81v-3.5zm-1.59 3.5h-.81v-3.5h.81v3.5zm1.65-1.435h-1.71v-.685h1.71v.685zM66.295 13.517v2.558h-9.44V4.372h9.222V6.93h-5.93v1.973h5.224v2.474h-5.224v2.14h6.148zM80 4.372v11.703h-2.738l-5.19-6.236v6.236h-3.26V4.372h2.739l5.19 6.236V4.372H80z" fill="#111518"/><g clip-path="url(#a)" fill="#FF6B09"><path d="M52.151 10.002c-.172-.383-.408-.76-.755-1.195-.873-1.093-1.14-3.531-1.143-3.554a.295.295 0 0 0-.204-.249.301.301 0 0 0-.314.085c-1.042 1.16-.604 2.952-.367 3.668.065.196.136.427.186.66.385 1.891-.358 2.748-.533 2.92-.169.047-.284.024-.39-.09-.368-.4-.49-1.713-.318-3.423.036-.348.027-.66-.023-.953-.362-2.101-1.69-3.45-2.029-3.922-.93-1.368-1.024-3.644-1.027-3.665a.286.286 0 0 0-.163-.251.297.297 0 0 0-.3.02c-1.55 1.05-1.418 3.578-1.201 4.99.05.327.148.66.316 1.08.602 1.506-.118 3.45-.124 3.467-.006.017-.012.032-.015.05-.091.479-.245.765-.417.765a.205.205 0 0 1-.056-.008c-.21-.044-.32-.267-.323-.46-.012-2.492-2.526-3.331-2.553-3.34a.296.296 0 0 0-.314.088.286.286 0 0 0-.041.321c.03.062.124.33.06 1.28a10.867 10.867 0 0 1-.466 2.508 12.16 12.16 0 0 0-.497 3.867c.46 4.977 7.653 5.85 11.922 3.045.467-.307.85-.658 1.13-1.043 1.576-2.163.65-5.1-.04-6.661zM41.21 14.757a.293.293 0 0 1-.279.307h-.017a.294.294 0 0 1-.297-.275 10.49 10.49 0 0 1 .012-1.359.298.298 0 0 1 .317-.272.295.295 0 0 1 .276.313 9.382 9.382 0 0 0-.012 1.286zm.145-2.59a.293.293 0 0 1-.293.258c-.012 0-.024 0-.039-.003a.295.295 0 0 1-.258-.325l.143-1.128a.299.299 0 0 1 .331-.254c.163.02.279.167.258.327l-.142 1.126zM50.148 3.998a.293.293 0 0 1-.247-.333c.018-.118.125-.726.416-1.032a.298.298 0 0 1 .418-.013.29.29 0 0 1 .014.413c-.123.13-.228.5-.263.721a.296.296 0 0 1-.338.244zM39.353 5.454c-.057-.217-.198-.576-.333-.693a.29.29 0 0 1-.028-.412.298.298 0 0 1 .418-.027c.32.276.486.87.516.987a.292.292 0 0 1-.213.355.297.297 0 0 1-.36-.21z"/></g><defs><clipPath id="a"><path fill="#fff" transform="translate(38.88)" d="M0 0h14.214v19.289H0z"/></clipPath></defs></svg>