<svg aria-hidden="true" style="position:absolute;width:0;height:0;overflow:hidden" xmlns="http://www.w3.org/2000/svg"><defs>
<symbol id="icon-bg-fire" viewBox="0 0 28 32"><path d="M28.799 21.831c-.373-.836-.887-1.659-1.639-2.609-1.896-2.386-2.474-7.706-2.481-7.757a.642.642 0 0 0-.64-.573.652.652 0 0 0-.484.215v.001c-2.262 2.533-1.311 6.443-.797 8.006.141.427.296.931.405 1.442.835 4.127-.778 5.996-1.157 6.373-.366.102-.617.051-.848-.198-.797-.874-1.06-3.738-.688-7.47a7.66 7.66 0 0 0-.051-2.08c-.786-4.587-3.668-7.529-4.402-8.561-2.018-2.985-2.224-7.955-2.23-7.999a.641.641 0 0 0-1.002-.504c-3.368 2.29-3.078 7.808-2.609 10.889.109.714.321 1.442.688 2.36 1.305 3.285-.257 7.527-.27 7.566s-.026.07-.032.108c-.199 1.046-.533 1.671-.906 1.671a.428.428 0 0 1-.122-.019c-.456-.096-.694-.581-.7-1.002-.026-5.441-5.482-7.272-5.54-7.291a.64.64 0 0 0-.681.191.627.627 0 0 0-.09.702c.064.134.27.721.128 2.794a23.848 23.848 0 0 1-1.009 5.473C.344 27.795.55 31.807.562 31.998c.998 10.864 16.609 12.768 25.873 6.647 1.015-.67 1.844-1.435 2.455-2.277 3.419-4.721 1.407-11.131-.09-14.538zM5.053 32.21a.637.637 0 0 1-.604.67H4.41a.64.64 0 0 1-.643-.6 22.933 22.933 0 0 1 .026-2.966.644.644 0 0 1 1.286.09 20.55 20.55 0 0 0-.026 2.807zm.315-5.652a.637.637 0 0 1-.636.561c-.026 0-.051 0-.084-.006a.643.643 0 0 1-.559-.708l.308-2.462a.65.65 0 0 1 .72-.555.64.64 0 0 1 .559.714l-.308 2.456zM24.451 8.727A.638.638 0 0 1 23.914 8c.04-.259.272-1.586.902-2.253a.645.645 0 0 1 1.111.436.634.634 0 0 1-.174.437c-.267.283-.494 1.091-.57 1.575a.643.643 0 0 1-.733.533zM1.023 11.905C.9 11.431.594 10.648.301 10.393c-.267-.232-.294-.635-.06-.9s.639-.292.907-.059c.692.603 1.054 1.901 1.12 2.154a.638.638 0 0 1-.462.776.644.644 0 0 1-.783-.459z"/></symbol>
<symbol id="icon-book" viewBox="0 0 44 32"><path d="M43.248 3.445h-1.872V.633a.511.511 0 0 0-.511-.511H25.583a3.95 3.95 0 0 0-3.431 1.991l-.01.019A3.955 3.955 0 0 0 18.701.121H3.419a.511.511 0 0 0-.511.511v2.812H1.035a.511.511 0 0 0-.511.511v27.411c0 .282.229.511.511.511h42.213a.51.51 0 0 0 .51-.511V3.955a.511.511 0 0 0-.511-.511zM25.601 1.144h14.753v27.349H24.512c-.703 0-1.405.296-1.859.68V4.076a2.932 2.932 0 0 1 2.932-2.932h.015-.001zm-21.672 0h14.774a2.924 2.924 0 0 1 2.922 2.824v.005c.001.022.003.091.007.113v25.087a2.987 2.987 0 0 0-1.852-.678H3.929V1.145zM1.547 4.467h1.362v24.538c0 .282.229.511.511.511h16.36c.779 0 1.531.511 1.772 1.341H1.547V4.468zm41.191 26.389H22.733a1.85 1.85 0 0 1 1.775-1.341H40.865a.511.511 0 0 0 .511-.511V4.466h1.361v26.389z"/></symbol>
<symbol id="icon-check-mark" viewBox="0 0 40 32"><path fill="#ff6b09" style="fill:var(--color2, #ff6b09)" d="M34.458 1.514a29.4 29.4 0 0 0-4.266 2.379c-2.731 1.797-5.227 3.936-7.568 6.218a85.06 85.06 0 0 0-6.458 7.12l-.125.16c-.515.637-2.822 3.472-2.822 3.472L3.622 6.481 0 16.524l12.976 15.477c1.261-2.552 2.474-5.07 3.664-7.258.294-.557.605-1.08.901-1.613 0 0 1.523-2.677 1.923-3.35 1.602-2.698 3.333-5.325 5.238-7.821 1.909-2.491 3.984-4.87 6.336-6.96a28.318 28.318 0 0 1 3.64-2.807l.11-.067C36.119 1.277 37.535.535 39.049 0c-1.574.31-3.112.848-4.592 1.514z"/></symbol>
<symbol id="icon-close" viewBox="0 0 32 32"><path fill="none" stroke="#fff" style="stroke:var(--color1, #fff)" stroke-width="3.556" d="M1.778 30.222 30.222 1.778m0 28.444L1.778 1.778"/></symbol>
<symbol id="icon-fire" viewBox="0 0 26 32"><path fill="#ff6b09" style="fill:var(--color2, #ff6b09)" d="M22.642 16.003c-.275-.613-.654-1.216-1.208-1.912-1.398-1.749-1.824-5.649-1.829-5.686a.471.471 0 0 0-.327-.397.48.48 0 0 0-.502.136c-1.668 1.856-.967 4.723-.588 5.869.104.313.218.683.298 1.057.616 3.025-.573 4.396-.853 4.672-.27.075-.455.037-.625-.145-.588-.641-.782-2.74-.507-5.476a5.543 5.543 0 0 0-.038-1.524c-.58-3.362-2.704-5.519-3.245-6.275C11.73 4.134 11.579.491 11.574.458a.457.457 0 0 0-.261-.402.476.476 0 0 0-.479.033C8.351 1.768 8.565 5.813 8.91 8.071c.081.524.237 1.057.507 1.73.962 2.408-.19 5.518-.199 5.546s-.019.051-.024.079c-.147.767-.393 1.225-.668 1.225a.341.341 0 0 1-.09-.014c-.336-.07-.512-.426-.516-.734-.019-3.989-4.041-5.331-4.084-5.345a.473.473 0 0 0-.502.14.456.456 0 0 0-.066.514c.047.098.199.528.095 2.048a17.375 17.375 0 0 1-.744 4.012c-.957 3.105-.805 6.046-.796 6.187.736 7.964 12.245 9.359 19.075 4.873.748-.491 1.36-1.052 1.81-1.669 2.521-3.46 1.038-8.16-.066-10.657zM5.135 23.611a.468.468 0 0 1-.445.491h-.028a.47.47 0 0 1-.474-.44 16.729 16.729 0 0 1 .019-2.174.478.478 0 0 1 .507-.435c.261.019.46.243.441.5a14.999 14.999 0 0 0-.019 2.058zm.233-4.143a.47.47 0 0 1-.469.412c-.019 0-.038 0-.062-.005a.472.472 0 0 1-.412-.519l.227-1.805a.478.478 0 0 1 .531-.407.47.47 0 0 1 .412.524l-.227 1.8zM19.437 6.397a.469.469 0 0 1-.396-.533c.03-.19.201-1.163.665-1.652.179-.189.478-.198.67-.021s.2.472.021.661c-.197.207-.364.8-.42 1.154a.474.474 0 0 1-.541.39zM2.164 8.727c-.091-.348-.316-.921-.532-1.109-.197-.17-.217-.466-.044-.66s.471-.214.669-.043c.511.442.777 1.393.826 1.579a.475.475 0 0 1-.918.233z"/></symbol>
<symbol id="icon-hamburger-menu" viewBox="0 0 48 32"><path stroke-width="4.571" d="M0 2.286h48M0 16h48M0 29.714h48"/></symbol>
<symbol id="icon-hat-mobile" viewBox="0 0 33 32"><path d="M30.175-.128H14.429a1.861 1.861 0 0 0-1.859 1.859V8.25L.872 13.159a.382.382 0 0 0-.051.678l.002.001 1.492.893v9.516A1.722 1.722 0 0 0 .98 25.92v.917c0 .211.17.381.381.381h2.671a.38.38 0 0 0 .381-.381v-.917a1.72 1.72 0 0 0-1.337-1.673v-9.06l1.18.706c-.036.272-.005-.474-.017 4.43 0 1.612 4.129 2.476 8.33 2.525v7.425c0 1.025.832 1.856 1.857 1.856h15.747a1.859 1.859 0 0 0 1.857-1.857c0 .051-.002-1.573 0-28.539a1.87 1.87 0 0 0-1.856-1.859zM3.652 25.918v.537h-1.91v-.537c0-.528.428-.957.953-.957.528 0 .957.43.957.957zm26.523 5.446H14.429c-.378 0-.711-.191-.909-.481a1.081 1.081 0 0 1-.187-.61V27.697h17.934v2.575c0 .596-.497 1.092-1.092 1.092zm1.092-4.429H13.332v-4.086c2.051-.023 8.335-.475 8.335-2.527-.002-3.08.005-4.33-.01-4.436l3.421-2.049a.382.382 0 0 0-.046-.676l-.002-.001-11.698-4.91V5.068h17.935v21.868zm-18.316-9.143c-2.113 0-6.181.273-7.949 1.427.012-3.53-.123-3.3.313-3.6 1.098-.808 4.238-1.373 7.636-1.373 1.483 0 7.954.407 7.954 1.777v3.196c-1.784-1.165-5.832-1.428-7.954-1.428zm.382-16.061A1.096 1.096 0 0 1 14.428.637h15.746c.604 0 1.093.498 1.093 1.095v2.574H13.333V1.732zm-.381 7.184 11.09 4.655-2.748 1.644c-1.461-1.449-6.294-1.729-8.342-1.729-2.051 0-6.883.281-8.342 1.729L1.861 13.57l11.091-4.655zm-7.95 11.406c0-.616 2.73-1.768 7.949-1.768 5.222 0 7.954 1.151 7.954 1.767s-2.732 1.768-7.954 1.768c-5.219 0-7.949-1.151-7.949-1.768z"/><path fill="#ff6b09" style="fill:var(--color2, #ff6b09)" d="M22.301 28.271a1.261 1.261 0 0 0 0 2.521 1.261 1.261 0 0 0 0-2.52zm0 1.759a.5.5 0 0 1-.001-.996h.001a.498.498 0 0 1 0 .996zm1.454-27.94h-2.907v.761h2.907V2.09z"/></symbol>
<symbol id="icon-headphones" viewBox="0 0 39 32"><path d="M3.047 29.453h12.23a3.743 3.743 0 0 0 3.367 2.115h.801a3.737 3.737 0 0 0 3.356-2.093l.01-.022h12.237a2.288 2.288 0 0 0 2.286-2.286V5.262a2.288 2.288 0 0 0-2.286-2.285h-1.234V1.956A1.525 1.525 0 0 0 32.29.433H5.799a1.524 1.524 0 0 0-1.523 1.523v1.021H3.049A2.289 2.289 0 0 0 .762 5.262v21.905a2.288 2.288 0 0 0 2.287 2.286zm29.24-4.702H19.81V7.046c2.884.377 5.12 2.845 5.12 5.831v.687l-.18-.04a.763.763 0 0 0-.907.575l-.001.005-1.213 5.52a.763.763 0 0 0 .575.906l.005.001 2.621.578a1.946 1.946 0 0 0 2.319-1.492l.701-3.192a1.954 1.954 0 0 0-1.471-2.321l-.013-.003-.912-.201v-1.023c0-3.827-2.917-6.987-6.645-7.371V1.955h12.48l-.001 22.796zm-7.12-9.574 1.871.412a.422.422 0 0 1 .325.508l-.701 3.191a.45.45 0 0 1-.507.331l-1.873-.413.886-4.029zM5.798 1.955h12.487v3.55c-3.731.381-6.651 3.542-6.651 7.372v1.022l-.913.202a1.95 1.95 0 0 0-1.219.846l-.005.008a1.91 1.91 0 0 0-.257 1.482l-.003-.013.701 3.189a1.961 1.961 0 0 0 2.339 1.493l-.013.002 2.61-.577a.764.764 0 0 0 .579-.912l.001.005-1.213-5.519a.76.76 0 0 0-.914-.579l.005-.001-.173.038v-.685c0-2.988 2.24-5.458 5.127-5.832v17.707H5.799V1.956zm7.118 13.222.887 4.029-1.863.411a.431.431 0 0 1-.51-.325l-.001-.003-.702-3.196a.42.42 0 0 1 .056-.321l-.001.002a.427.427 0 0 1 .264-.186l.003-.001 1.867-.412zM2.285 5.262c0-.42.342-.762.762-.762h1.227v20.251a1.526 1.526 0 0 0 1.524 1.524h26.491a1.525 1.525 0 0 0 1.524-1.523V4.5h1.234c.42 0 .762.342.762.762v21.905c0 .42-.341.762-.762.762H22.293a.763.763 0 0 0-.729.539 2.226 2.226 0 0 1-2.126 1.577h-.784a2.23 2.23 0 0 1-2.13-1.571l-.004-.016a.762.762 0 0 0-.725-.529H3.048a.763.763 0 0 1-.763-.762V5.262z"/></symbol>
<symbol id="icon-left-arrow" viewBox="0 0 54 32"><path fill="#ff6b09" style="fill:var(--color2, #ff6b09)" d="M52 14a2 2 0 1 1 0 4v-4zM.586 17.414C.224 17.052 0 16.552 0 16s.224-1.052.586-1.414L13.314 1.858a2 2 0 0 1 2.825 2.829l.001-.001L4.828 16l11.314 11.314a2 2 0 1 1-2.827 2.829l-.001-.001L.586 17.414zM52 18H2v-4h50v4z"/></symbol>
<symbol id="icon-man" viewBox="0 0 27 32"><path d="M-.102 31.759h26.785c.132-3.055-.087-8.123-1.965-10.535l-.068-.087-4.103-2.06c.089-.301.133-.576.151-.779a1.43 1.43 0 0 0-.1-.678c-.677-1.62-2.11-2.472-2.898-2.835.24-.484.395-1.003.47-1.534.456-.131.805-.489.921-.942l.002-.009.479-1.947a1.306 1.306 0 0 0-.154-1.007l.003.006a1.316 1.316 0 0 0-.292-.332l-.002-.002c1.351-3.068-.911-5.96-1.035-6.113C15.642.257 12.547.752 12.384.782c-4.467.935-6.19 4.358-5.217 8.372a1.31 1.31 0 0 0-.301 1.21l-.002-.009.481 1.949c.117.468.473.82.916.947a5.01 5.01 0 0 0 1.158 2.567l-.006-.007v1.543c-6.409 3.282-2.348 1.188-7.484 3.787-.01.048-2.41 2.599-2.053 10.158l.022.462zm25.853-.97h-4.408v-1.851l2.915-6.675c1.461 2.424 1.515 7.053 1.493 8.527zm-6.016-12.573c-.17 1.955-1.242 1.364-1.903 2.869-.52-.572-.677-1.258-.537-1.993.253-1.349-.57-1.749-.367-3.166l.031-.033v-.004c.017-.02.18-.213.227-.274 1.745.76 2.584 2.174 2.55 2.6zm-9.356-1.536c.793.56 1.779.894 2.843.894a4.946 4.946 0 0 0 2.75-.83l-.018.011c.112 1.113.547 1.337.393 2.157a3.552 3.552 0 0 0-.054.44v.01l-3.003 3.383-3.837-4.327.927-.483V16.68zm-1.207-4.14V7.367c.467-.864 1.104-1.491 1.896-1.867 2.12 1.2 4.56 2.99 6.197 4.792-.001 2.294.007 2.3-.009 2.489l-.001.012c-.127 2.083-1.84 3.811-4.037 3.811-2.136 0-3.909-1.677-4.037-3.831a2.716 2.716 0 0 1-.008-.21v-.024.001zm-.598 6.347 4.716 5.316 3.167-3.569c.072.209.173.405.29.595l-3.457 4.323-5.153-6.446.437-.22zm9.657-7.128v-1.498l.36-.413c.02.759.101-.136-.36 1.911zM12.562 1.733c.191.012 2.765-.391 4.799 1.805.08.1 1.736 2.233 1.071 4.567-.227-1.038-.624-2.369-1.251-3.003l-.685.683c.619.627 1.025 2.537 1.18 3.527-2.84-2.972-6.504-4.853-6.554-4.885-.184.114-1.735.409-2.86 2.597l-.054.105v1.608l-.142.001c-.716-3.455.655-6.199 4.497-7.004zM7.963 9.735l.244.987v1.037l-.405-1.639c-.059-.245.121-.337.161-.386zm-.71 9.814L13.29 27.1l4.085-5.109c.444.398.658.454 1.6.939l-.318-1.078c-.08-.273.239-.713.431-.914.434-.238.79-.568 1.051-.966l.007-.011 3.333 1.673-3.101 7.1v2.055H6.201v-2.055l-3.102-7.101 4.153-2.085zm-4.932 2.716 2.916 6.673v1.851H.828C.805 29.316.86 24.69 2.32 22.265z"/></symbol>
<symbol id="icon-people" viewBox="0 0 33 32"><path d="M1.993 12.558v2.831c0 .152.069.295.189.39a11.03 11.03 0 0 0 6.837 2.362c.74 0 1.481-.077 2.207-.224a11.83 11.83 0 0 0 4.873 1.032h.018-.001c1.707 0 3.351-.349 4.891-1.032 3.091.625 6.384-.046 9.042-2.138a.495.495 0 0 0 .189-.39v-2.831c0-.415-.207-.794-.575-1.027l-3.867-2.176c.845-1.073 1.476-2.602 1.585-3.913.321-2.256-1.518-4.646-4.165-4.646a4.212 4.212 0 0 0-2.948 1.227c-.027.027-.057.049-.083.077-.024.025-.043.054-.067.08l-.045.053C19.317.852 17.862 0 16.149 0c-.167 0-.33.011-.492.028-.01-.001-.018-.006-.028-.006-.092 0-.287.025-.391.055-.015.004-.027.015-.041.021a4.498 4.498 0 0 0-3.002 2.135l-.011.021A4.17 4.17 0 0 0 9.015.797h-.01.001c-3.909 0-5.642 4.612-2.557 8.581l-3.903 2.167a1.19 1.19 0 0 0-.553 1.014zm19.003 4.27c-.084.041-.167.085-.251.123l-.002.001a10.84 10.84 0 0 1-4.596 1.006h-.032.002-.025c-2.509 0-4.823-.837-6.677-2.248l.027.02v-2.87c0-.097.047-.184.102-.221l4.542-2.525c.565.48 1.287.832 2.035.832.721 0 1.499-.357 2.053-.843l4.487 2.52a.277.277 0 0 1 .131.237v2.87c-.52.395-1.108.76-1.729 1.069l-.064.029zm8.158-4.447a.202.202 0 0 1 .092.169v2.595a9.988 9.988 0 0 1-6.737 1.98c.419-.265.772-.515 1.112-.782l-.028.022a.495.495 0 0 0 .189-.39V12.86c0-.435-.218-.835-.61-1.087l-2.383-1.339.58-.321c.703.573 1.307.744 1.848.744.663 0 1.36-.325 1.878-.759l4.06 2.284zM23.216 1.788c1.38 0 2.593.902 3.021 2.142a3.698 3.698 0 0 1-2.235-1.14L24 2.788a.497.497 0 0 0-.788.082l-.001.002a3.693 3.693 0 0 1-2.525 1.757l-.022.003v-.003l.001-.079c0-.202-.012-.402-.036-.598l.002.023-.007-.066a5.31 5.31 0 0 0-.131-.647l.009.038c.563-.902 1.609-1.513 2.713-1.513zm-2.66 3.855a4.648 4.648 0 0 0 3.156-1.751l.008-.01a4.684 4.684 0 0 0 2.702 1.056c-.007 1.792-1.471 4.927-3.207 4.927-1.337 0-2.478-1.912-2.905-3.238a8.15 8.15 0 0 0 .245-.983zm.1 3.73-.885.491-.895-.503c.331-.413.636-.893.896-1.413.251.527.551 1.01.885 1.425zM19.32 6.465c-.478 1.427-1.705 3.49-3.199 3.49-1.742 0-3.225-2.864-3.508-4.696.075-.019 2.429.127 4.049-2.001.822.688 1.931 1.143 3.011 1.188.013.647-.144 1.407-.352 2.019zM16.15.991c2.78 0 3.309 2.393 3.353 2.443a4.124 4.124 0 0 1-2.561-1.274l-.002-.002a.494.494 0 0 0-.788.085l-.001.002a4.08 4.08 0 0 1-3.52 2.022h-.063.003c.136-1.822 1.596-3.274 3.58-3.274zm-3.689 6.947c.257.515.563 1.007.913 1.439l-.876.487-.907-.51c.344-.439.636-.929.869-1.415zm-3.454-6.15a3.18 3.18 0 0 1 2.729 1.514c-.029.1-.107.498-.117.548a3.682 3.682 0 0 1-1.818-1.061l-.002-.002a.494.494 0 0 0-.787.085l-.001.002a3.717 3.717 0 0 1-3.177 1.815h-.001c.158-1.627 1.518-2.9 3.173-2.9zM5.875 5.677A4.699 4.699 0 0 0 9.51 3.891l.007-.01c.57.468 1.264.806 2.026.956l.029.005c.029.575.179 1.273.351 1.789-.274.84-.799 1.84-1.451 2.505-.005.004-.01.006-.013.01-.408.43-.989.719-1.445.719-1.593 0-2.841-2.508-3.14-4.188zm-2.89 6.881c0-.075.033-.139.067-.162l4.117-2.284c.247.206.303.229.353.265.484.323.928.483 1.533.483.645 0 1.233-.273 1.749-.694.029-.023.061-.045.089-.068l.587.33-2.446 1.361a1.271 1.271 0 0 0-.584 1.069V15.976c0 .152.07.295.19.389.317.249.727.539 1.083.761a10.017 10.017 0 0 1-6.737-1.98v-2.587z"/><path fill="#ff6b09" style="fill:var(--color2, #ff6b09)" d="M31.259 20.781a2.042 2.042 0 0 0-1.102-.319c-.329 0-.641.077-.917.215l.012-.005-6.12 2.956a2.11 2.11 0 0 0-2.106-2.071l-3.51.001c-1.73-1.504-3.941-2.425-5.952-2.473-1.983-.047-3.762-.06-4.592-.064v-1.002H0v11.517h6.972v-1.379c1.911 1.097 6.939 3.845 9.325 3.845.053 0 .107-.001.157-.004 4.196-.235 14.091-7.199 14.743-7.661a2.083 2.083 0 0 0 1.034-1.795v-.006a2.06 2.06 0 0 0-.965-1.747l-.009-.005zM5.98 28.543H.992V19.01H5.98v9.533zm24.707-5.058a.303.303 0 0 0-.044.028l.001-.001c-.103.073-10.281 7.271-14.245 7.493a2.179 2.179 0 0 1-.12.003c-2.093 0-7.195-2.753-9.307-4.001V20.01c.827.003 2.596.017 4.569.064 1.837.044 3.876.921 5.455 2.345l.141.128 3.888-.001a1.119 1.119 0 0 1 0 2.238h-7.142v.992h7.142c.685 0 1.288-.333 1.673-.84l6.984-3.373a1.052 1.052 0 0 1 1.053.06l-.004-.003c.323.202.508.537.508.918a1.087 1.087 0 0 1-.548.943l-.005.003zM16.611 12.159h-.991v.919h.991v-.92zm0 1.833h-.991v.92h.991v-.92zm0 1.835h-.991v.919h.991v-.92z"/></symbol>
<symbol id="icon-right-arrow" viewBox="0 0 54 32"><path fill="#ff6b09" style="fill:var(--color2, #ff6b09)" d="M2 14a2 2 0 1 0 0 4v-4zm51.414 3.414c.362-.362.586-.862.586-1.414s-.224-1.052-.586-1.414L40.686 1.858a2 2 0 1 0-2.829 2.827l.001.001L49.172 16 37.858 27.314a2 2 0 0 0 2.829 2.827l-.001.001 12.728-12.728zM2 18h50v-4H2v4z"/></symbol>
<symbol id="icon-sheet" viewBox="0 0 31 32"><path d="m30.151 4.961-.001-.003a.284.284 0 0 0-.06-.09L25.284.062a.237.237 0 0 0-.039-.032l-.001-.001-.009-.005a.274.274 0 0 0-.034-.019l-.002-.001L25.187 0a.28.28 0 0 0-.098-.02l-.005-.001H3.913a.284.284 0 0 0-.284.284v29.311a.25.25 0 0 0 .006.055c.001.008.005.015.007.023l.009.03.013.025.013.023a.33.33 0 0 0 .032.04l.003.003 2.164 2.165a.283.283 0 0 0 .402 0l1.965-1.964 1.963 1.964c.051.052.122.084.201.084s.15-.032.201-.084l1.963-1.963 1.965 1.963a.285.285 0 0 0 .402 0l1.963-1.963 1.963 1.963a.283.283 0 0 0 .402 0l1.965-1.964 1.963 1.964c.051.052.122.084.201.084s.15-.032.201-.084l1.963-1.963 1.965 1.963a.283.283 0 0 0 .402 0l2.165-2.165c.005-.004.007-.009.011-.013.008-.009.017-.019.023-.029.007-.009.011-.02.017-.03l.009-.019c.006-.013.009-.027.012-.04l.005-.013a.256.256 0 0 0 .006-.057V5.069a.314.314 0 0 0-.023-.111l.001.002zM25.367.949l3.835 3.835h-3.835V.949zm4.237 28.507-1.88 1.88-1.965-1.964a.283.283 0 0 0-.402 0l-1.964 1.964-1.963-1.964a.283.283 0 0 0-.402 0l-1.965 1.964-1.963-1.964c-.051-.052-.122-.084-.201-.084s-.15.032-.201.084l-1.963 1.964-1.965-1.964a.283.283 0 0 0-.402 0l-1.963 1.964-1.964-1.964a.287.287 0 0 0-.402 0l-1.965 1.964-1.88-1.88V.547h20.603v4.522c0 .157.127.284.284.284h4.521v24.103z"/><path fill="#ff6b09" style="fill:var(--color2, #ff6b09)" d="M6.314 3.234h9.303a.284.284 0 1 0 0-.568H6.313a.284.284 0 1 0 0 .568zm0 1.757h14.919a.284.284 0 1 0 0-.568H6.314a.284.284 0 1 0 0 .568zM6.03 6.568v9.199c0 .157.127.284.284.284h21.173a.284.284 0 0 0 .284-.284V6.568a.284.284 0 0 0-.284-.284H6.314a.284.284 0 0 0-.284.284zm6.279.284h14.893v2.445H12.309V6.852zm0 3.013h14.893v2.444H12.309V9.865zm0 3.012h14.893v2.605H12.309v-2.605zM6.598 6.852h5.143v2.445H6.598V6.852zm0 3.013h5.143v2.444H6.598V9.865zm0 3.012h5.143v2.605H6.598v-2.605zm20.889 4.452H6.314a.284.284 0 0 0-.284.284v9.198a.284.284 0 1 0 .568 0v-2.889h5.142v2.889a.284.284 0 1 0 .568 0v-2.889h14.893v2.889a.284.284 0 1 0 .568 0v-9.199a.283.283 0 0 0-.283-.283h-.001zM11.74 23.353H6.599V20.91h5.143v2.443zm0-3.012H6.599v-2.444h5.143v2.444zm15.462 3.012H12.309V20.91h14.893v2.443zm0-3.012H12.309v-2.444h14.893v2.444zM2.281-.021a.284.284 0 0 0-.284.284v29.311a.284.284 0 1 0 .568 0V.263a.284.284 0 0 0-.284-.284H2.28zm-1.562 0H.718a.284.284 0 0 0-.284.284v29.311a.284.284 0 1 0 .568 0V.263a.284.284 0 0 0-.283-.284z"/></symbol>
<symbol id="icon-vk" viewBox="0 0 32 32"><path fill="#436eab" style="fill:var(--color3, #436eab)" d="M27.541 18.46c1.06 1.037 2.181 2.012 3.133 3.153.421.507.819 1.029 1.123 1.618.432.836.042 1.757-.709 1.807l-4.661-.002c-1.202.099-2.161-.384-2.969-1.206-.645-.658-1.243-1.358-1.863-2.037a4.456 4.456 0 0 0-.824-.736l-.015-.01c-.637-.413-1.189-.287-1.553.378-.37.675-.454 1.422-.491 2.175-.05 1.098-.382 1.387-1.485 1.437-2.356.111-4.593-.245-6.67-1.435-1.833-1.049-3.253-2.528-4.489-4.203C3.661 16.139 1.817 12.555.161 8.87c-.373-.83-.1-1.276.815-1.292 1.521-.03 3.042-.028 4.564-.002.619.009 1.027.363 1.266.947.822 2.023 1.829 3.949 3.093 5.732.336.476.679.949 1.168 1.284.541.37.953.247 1.206-.354.162-.382.233-.794.269-1.202.121-1.408.137-2.812-.075-4.213-.13-.876-.623-1.442-1.495-1.607-.446-.085-.38-.251-.164-.505.374-.439.727-.713 1.429-.713h5.269c.829.164 1.013.537 1.127 1.372l.004 5.852c-.01.323.161 1.282.743 1.495.465.153.772-.22 1.052-.515 1.262-1.339 2.162-2.922 2.965-4.56.357-.72.665-1.468.962-2.215.221-.555.565-.828 1.191-.816l5.07.004c.151 0 .303.002.448.028.855.145 1.089.512.826 1.347-.416 1.309-1.225 2.4-2.016 3.497-.846 1.169-1.749 2.3-2.589 3.477-.77 1.074-.709 1.616.247 2.549z"/></symbol></defs></svg>