<svg aria-hidden="true" style="position:absolute;width:0;height:0;overflow:hidden" xmlns="http://www.w3.org/2000/svg"><defs>
<symbol id="icon-bg-fire" viewBox="0 0 28 32"><path d="M28.799 21.831c-.373-.836-.887-1.659-1.639-2.609-1.896-2.386-2.474-7.706-2.481-7.757a.642.642 0 0 0-.64-.573.652.652 0 0 0-.484.215v.001c-2.262 2.533-1.311 6.443-.797 8.006.141.427.296.931.405 1.442.835 4.127-.778 5.996-1.157 6.373-.366.102-.617.051-.848-.198-.797-.874-1.06-3.738-.688-7.47a7.66 7.66 0 0 0-.051-2.08c-.786-4.587-3.668-7.529-4.402-8.561-2.018-2.985-2.224-7.955-2.23-7.999a.641.641 0 0 0-1.002-.504c-3.368 2.29-3.078 7.808-2.609 10.889.109.714.321 1.442.688 2.36 1.305 3.285-.257 7.527-.27 7.566s-.026.07-.032.108c-.199 1.046-.533 1.671-.906 1.671a.428.428 0 0 1-.122-.019c-.456-.096-.694-.581-.7-1.002-.026-5.441-5.482-7.272-5.54-7.291a.64.64 0 0 0-.681.191.627.627 0 0 0-.09.702c.064.134.27.721.128 2.794a23.848 23.848 0 0 1-1.009 5.473C.344 27.795.55 31.807.562 31.998c.998 10.864 16.609 12.768 25.873 6.647 1.015-.67 1.844-1.435 2.455-2.277 3.419-4.721 1.407-11.131-.09-14.538zM5.053 32.21a.637.637 0 0 1-.604.67H4.41a.64.64 0 0 1-.643-.6 22.933 22.933 0 0 1 .026-2.966.644.644 0 0 1 1.286.09 20.55 20.55 0 0 0-.026 2.807zm.315-5.652a.637.637 0 0 1-.636.561c-.026 0-.051 0-.084-.006a.643.643 0 0 1-.559-.708l.308-2.462a.65.65 0 0 1 .72-.555.64.64 0 0 1 .559.714l-.308 2.456zM24.451 8.727A.638.638 0 0 1 23.914 8c.04-.259.272-1.586.902-2.253a.645.645 0 0 1 1.111.436.634.634 0 0 1-.174.437c-.267.283-.494 1.091-.57 1.575a.643.643 0 0 1-.733.533zM1.023 11.905C.9 11.431.594 10.648.301 10.393c-.267-.232-.294-.635-.06-.9s.639-.292.907-.059c.692.603 1.054 1.901 1.12 2.154a.638.638 0 0 1-.462.776.644.644 0 0 1-.783-.459z"/></symbol>
<symbol id="icon-book" viewBox="0 0 44 32"><path d="M43.248 3.445h-1.872V.633a.511.511 0 0 0-.511-.511H25.583a3.95 3.95 0 0 0-3.431 1.991l-.01.019A3.955 3.955 0 0 0 18.701.121H3.419a.511.511 0 0 0-.511.511v2.812H1.035a.511.511 0 0 0-.511.511v27.411c0 .282.229.511.511.511h42.213a.51.51 0 0 0 .51-.511V3.955a.511.511 0 0 0-.511-.511zM25.601 1.144h14.753v27.349H24.512c-.703 0-1.405.296-1.859.68V4.076a2.932 2.932 0 0 1 2.932-2.932h.015-.001zm-21.672 0h14.774a2.924 2.924 0 0 1 2.922 2.824v.005c.001.022.003.091.007.113v25.087a2.987 2.987 0 0 0-1.852-.678H3.929V1.145zM1.547 4.467h1.362v24.538c0 .282.229.511.511.511h16.36c.779 0 1.531.511 1.772 1.341H1.547V4.468zm41.191 26.389H22.733a1.85 1.85 0 0 1 1.775-1.341H40.865a.511.511 0 0 0 .511-.511V4.466h1.361v26.389z"/></symbol>
<symbol id="icon-check-mark" viewBox="0 0 40 32"><path fill="#ff6b09" style="fill:var(--color2, #ff6b09)" d="M34.458 1.514a29.4 29.4 0 0 0-4.266 2.379c-2.731 1.797-5.227 3.936-7.568 6.218a85.06 85.06 0 0 0-6.458 7.12l-.125.16c-.515.637-2.822 3.472-2.822 3.472L3.622 6.481 0 16.524l12.976 15.477c1.261-2.552 2.474-5.07 3.664-7.258.294-.557.605-1.08.901-1.613 0 0 1.523-2.677 1.923-3.35 1.602-2.698 3.333-5.325 5.238-7.821 1.909-2.491 3.984-4.87 6.336-6.96a28.318 28.318 0 0 1 3.64-2.807l.11-.067C36.119 1.277 37.535.535 39.049 0c-1.574.31-3.112.848-4.592 1.514z"/></symbol>
<symbol id="icon-close" viewBox="0 0 32 32"><path fill="none" stroke="#fff" style="stroke:var(--color1, #fff)" stroke-width="3.556" d="M1.778 30.222 30.222 1.778m0 28.444L1.778 1.778"/></symbol>
<symbol id="icon-fire" viewBox="0 0 26 32"><path fill="#ff6b09" style="fill:var(--color2, #ff6b09)" d="M22.642 16.003c-.275-.613-.654-1.216-1.208-1.912-1.398-1.749-1.824-5.649-1.829-5.686a.471.471 0 0 0-.327-.397.48.48 0 0 0-.502.136c-1.668 1.856-.967 4.723-.588 5.869.104.313.218.683.298 1.057.616 3.025-.573 4.396-.853 4.672-.27.075-.455.037-.625-.145-.588-.641-.782-2.74-.507-5.476a5.543 5.543 0 0 0-.038-1.524c-.58-3.362-2.704-5.519-3.245-6.275C11.73 4.134 11.579.491 11.574.458a.457.457 0 0 0-.261-.402.476.476 0 0 0-.479.033C8.351 1.768 8.565 5.813 8.91 8.071c.081.524.237 1.057.507 1.73.962 2.408-.19 5.518-.199 5.546s-.019.051-.024.079c-.147.767-.393 1.225-.668 1.225a.341.341 0 0 1-.09-.014c-.336-.07-.512-.426-.516-.734-.019-3.989-4.041-5.331-4.084-5.345a.473.473 0 0 0-.502.14.456.456 0 0 0-.066.514c.047.098.199.528.095 2.048a17.375 17.375 0 0 1-.744 4.012c-.957 3.105-.805 6.046-.796 6.187.736 7.964 12.245 9.359 19.075 4.873.748-.491 1.36-1.052 1.81-1.669 2.521-3.46 1.038-8.16-.066-10.657zM5.135 23.611a.468.468 0 0 1-.445.491h-.028a.47.47 0 0 1-.474-.44 16.729 16.729 0 0 1 .019-2.174.478.478 0 0 1 .507-.435c.261.019.46.243.441.5a14.999 14.999 0 0 0-.019 2.058zm.233-4.143a.47.47 0 0 1-.469.412c-.019 0-.038 0-.062-.005a.472.472 0 0 1-.412-.519l.227-1.805a.478.478 0 0 1 .531-.407.47.47 0 0 1 .412.524l-.227 1.8zM19.437 6.397a.469.469 0 0 1-.396-.533c.03-.19.201-1.163.665-1.652.179-.189.478-.198.67-.021s.2.472.021.661c-.197.207-.364.8-.42 1.154a.474.474 0 0 1-.541.39zM2.164 8.727c-.091-.348-.316-.921-.532-1.109-.197-.17-.217-.466-.044-.66s.471-.214.669-.043c.511.442.777 1.393.826 1.579a.475.475 0 0 1-.918.233z"/></symbol>
<symbol id="icon-hamburger-menu" viewBox="0 0 48 32"><path stroke-width="4.571" d="M0 2.286h48M0 16h48M0 29.714h48"/></symbol>
<symbol id="icon-hat-mobile" viewBox="0 0 33 32"><path d="M30.175-.128H14.429a1.861 1.861 0 0 0-1.859 1.859V8.25L.872 13.159a.382.382 0 0 0-.051.678l.002.001 1.492.893v9.516A1.722 1.722 0 0 0 .98 25.92v.917c0 .211.17.381.381.381h2.671a.38.38 0 0 0 .381-.381v-.917a1.72 1.72 0 0 0-1.337-1.673v-9.06l1.18.706c-.036.272-.005-.474-.017 4.43 0 1.612 4.129 2.476 8.33 2.525v7.425c0 1.025.832 1.856 1.857 1.856h15.747a1.859 1.859 0 0 0 1.857-1.857c0 .051-.002-1.573 0-28.539a1.87 1.87 0 0 0-1.856-1.859zM3.652 25.918v.537h-1.91v-.537c0-.528.428-.957.953-.957.528 0 .957.43.957.957zm26.523 5.446H14.429c-.378 0-.711-.191-.909-.481a1.081 1.081 0 0 1-.187-.61V27.697h17.934v2.575c0 .596-.497 1.092-1.092 1.092zm1.092-4.429H13.332v-4.086c2.051-.023 8.335-.475 8.335-2.527-.002-3.08.005-4.33-.01-4.436l3.421-2.049a.382.382 0 0 0-.046-.676l-.002-.001-11.698-4.91V5.068h17.935v21.868zm-18.316-9.143c-2.113 0-6.181.273-7.949 1.427.012-3.53-.123-3.3.313-3.6 1.098-.808 4.238-1.373 7.636-1.373 1.483 0 7.954.407 7.954 1.777v3.196c-1.784-1.165-5.832-1.428-7.954-1.428zm.382-16.061A1.096 1.096 0 0 1 14.428.637h15.746c.604 0 1.093.498 1.093 1.095v2.574H13.333V1.732zm-.381 7.184 11.09 4.655-2.748 1.644c-1.461-1.449-6.294-1.729-8.342-1.729-2.051 0-6.883.281-8.342 1.729L1.861 13.57l11.091-4.655zm-7.95 11.406c0-.616 2.73-1.768 7.949-1.768 5.222 0 7.954 1.151 7.954 1.767s-2.732 1.768-7.954 1.768c-5.219 0-7.949-1.151-7.949-1.768z"/><path fill="#ff6b09" style="fill:var(--color2, #ff6b09)" d="M22.301 28.271a1.261 1.261 0 0 0 0 2.521 1.261 1.261 0 0 0 0-2.52zm0 1.759a.5.5 0 0 1-.001-.996h.001a.498.498 0 0 1 0 .996zm1.454-27.94h-2.907v.761h2.907V2.09z"/></symbol>
<symbol id="icon-headphones" viewBox="0 0 39 32"><path d="M3.047 29.453h12.23a3.743 3.743 0 0 0 3.367 2.115h.801a3.737 3.737 0 0 0 3.356-2.093l.01-.022h12.237a2.288 2.288 0 0 0 2.286-2.286V5.262a2.288 2.288 0 0 0-2.286-2.285h-1.234V1.956A1.525 1.525 0 0 0 32.29.433H5.799a1.524 1.524 0 0 0-1.523 1.523v1.021H3.049A2.289 2.289 0 0 0 .762 5.262v21.905a2.288 2.288 0 0 0 2.287 2.286zm29.24-4.702H19.81V7.046c2.884.377 5.12 2.845 5.12 5.831v.687l-.18-.04a.763.763 0 0 0-.907.575l-.001.005-1.213 5.52a.763.763 0 0 0 .575.906l.005.001 2.621.578a1.946 1.946 0 0 0 2.319-1.492l.701-3.192a1.954 1.954 0 0 0-1.471-2.321l-.013-.003-.912-.201v-1.023c0-3.827-2.917-6.987-6.645-7.371V1.955h12.48l-.001 22.796zm-7.12-9.574 1.871.412a.422.422 0 0 1 .325.508l-.701 3.191a.45.45 0 0 1-.507.331l-1.873-.413.886-4.029zM5.798 1.955h12.487v3.55c-3.731.381-6.651 3.542-6.651 7.372v1.022l-.913.202a1.95 1.95 0 0 0-1.219.846l-.005.008a1.91 1.91 0 0 0-.257 1.482l-.003-.013.701 3.189a1.961 1.961 0 0 0 2.339 1.493l-.013.002 2.61-.577a.764.764 0 0 0 .579-.912l.001.005-1.213-5.519a.76.76 0 0 0-.914-.579l.005-.001-.173.038v-.685c0-2.988 2.24-5.458 5.127-5.832v17.707H5.799V1.956zm7.118 13.222.887 4.029-1.863.411a.431.431 0 0 1-.51-.325l-.001-.003-.702-3.196a.42.42 0 0 1 .056-.321l-.001.002a.427.427 0 0 1 .264-.186l.003-.001 1.867-.412zM2.285 5.262c0-.42.342-.762.762-.762h1.227v20.251a1.526 1.526 0 0 0 1.524 1.524h26.491a1.525 1.525 0 0 0 1.524-1.523V4.5h1.234c.42 0 .762.342.762.762v21.905c0 .42-.341.762-.762.762H22.293a.763.763 0 0 0-.729.539 2.226 2.226 0 0 1-2.126 1.577h-.784a2.23 2.23 0 0 1-2.13-1.571l-.004-.016a.762.762 0 0 0-.725-.529H3.048a.763.763 0 0 1-.763-.762V5.262z"/></symbol>
<symbol id="icon-left-arrow" viewBox="0 0 54 32"><path fill="#ff6b09" style="fill:var(--color2, #ff6b09)" d="M52 14a2 2 0 1 1 0 4v-4zM.586 17.414C.224 17.052 0 16.552 0 16s.224-1.052.586-1.414L13.314 1.858a2 2 0 0 1 2.825 2.829l.001-.001L4.828 16l11.314 11.314a2 2 0 1 1-2.827 2.829l-.001-.001L.586 17.414zM52 18H2v-4h50v4z"/></symbol>
<symbol id="icon-man" viewBox="0 0 27 32"><path d="M-.102 31.759h26.785c.132-3.055-.087-8.123-1.965-10.535l-.068-.087-4.103-2.06c.089-.301.133-.576.151-.779a1.43 1.43 0 0 0-.1-.678c-.677-1.62-2.11-2.472-2.898-2.835.24-.484.395-1.003.47-1.534.456-.131.805-.489.921-.942l.002-.009.479-1.947a1.306 1.306 0 0 0-.154-1.007l.003.006a1.316 1.316 0 0 0-.292-.332l-.002-.002c1.351-3.068-.911-5.96-1.035-6.113C15.642.257 12.547.752 12.384.782c-4.467.935-6.19 4.358-5.217 8.372a1.31 1.31 0 0 0-.301 1.21l-.002-.009.481 1.949c.117.468.473.82.916.947a5.01 5.01 0 0 0 1.158 2.567l-.006-.007v1.543c-6.409 3.282-2.348 1.188-7.484 3.787-.01.048-2.41 2.599-2.053 10.158l.022.462zm25.853-.97h-4.408v-1.851l2.915-6.675c1.461 2.424 1.515 7.053 1.493 8.527zm-6.016-12.573c-.17 1.955-1.242 1.364-1.903 2.869-.52-.572-.677-1.258-.537-1.993.253-1.349-.57-1.749-.367-3.166l.031-.033v-.004c.017-.02.18-.213.227-.274 1.745.76 2.584 2.174 2.55 2.6zm-9.356-1.536c.793.56 1.779.894 2.843.894a4.946 4.946 0 0 0 2.75-.83l-.018.011c.112 1.113.547 1.337.393 2.157a3.552 3.552 0 0 0-.054.44v.01l-3.003 3.383-3.837-4.327.927-.483V16.68zm-1.207-4.14V7.367c.467-.864 1.104-1.491 1.896-1.867 2.12 1.2 4.56 2.99 6.197 4.792-.001 2.294.007 2.3-.009 2.489l-.001.012c-.127 2.083-1.84 3.811-4.037 3.811-2.136 0-3.909-1.677-4.037-3.831a2.716 2.716 0 0 1-.008-.21v-.024.001zm-.598 6.347 4.716 5.316 3.167-3.569c.072.209.173.405.29.595l-3.457 4.323-5.153-6.446.437-.22zm9.657-7.128v-1.498l.36-.413c.02.759.101-.136-.36 1.911zM12.562 1.733c.191.012 2.765-.391 4.799 1.805.08.1 1.736 2.233 1.071 4.567-.227-1.038-.624-2.369-1.251-3.003l-.685.683c.619.627 1.025 2.537 1.18 3.527-2.84-2.972-6.504-4.853-6.554-4.885-.184.114-1.735.409-2.86 2.597l-.054.105v1.608l-.142.001c-.716-3.455.655-6.199 4.497-7.004zM7.963 9.735l.244.987v1.037l-.405-1.639c-.059-.245.121-.337.161-.386zm-.71 9.814L13.29 27.1l4.085-5.109c.444.398.658.454 1.6.939l-.318-1.078c-.08-.273.239-.713.431-.914.434-.238.79-.568 1.051-.966l.007-.011 3.333 1.673-3.101 7.1v2.055H6.201v-2.055l-3.102-7.101 4.153-2.085zm-4.932 2.716 2.916 6.673v1.851H.828C.805 29.316.86 24.69 2.32 22.265z"/></symbol>
<symbol id="icon-people" viewBox="0 0 33 32"><path d="M1.993 12.558v2.831c0 .152.069.295.189.39a11.03 11.03 0 0 0 6.837 2.362c.74 0 1.481-.077 2.207-.224a11.83 11.83 0 0 0 4.873 1.032h.018-.001c1.707 0 3.351-.349 4.891-1.032 3.091.625 6.384-.046 9.042-2.138a.495.495 0 0 0 .189-.39v-2.831c0-.415-.207-.794-.575-1.027l-3.867-2.176c.845-1.073 1.476-2.602 1.585-3.913.321-2.256-1.518-4.646-4.165-4.646a4.212 4.212 0 0 0-2.948 1.227c-.027.027-.057.049-.083.077-.024.025-.043.054-.067.08l-.045.053C19.317.852 17.862 0 16.149 0c-.167 0-.33.011-.492.028-.01-.001-.018-.006-.028-.006-.092 0-.287.025-.391.055-.015.004-.027.015-.041.021a4.498 4.498 0 0 0-3.002 2.135l-.011.021A4.17 4.17 0 0 0 9.015.797h-.01.001c-3.909 0-5.642 4.612-2.557 8.581l-3.903 2.167a1.19 1.19 0 0 0-.553 1.014zm19.003 4.27c-.084.041-.167.085-.251.123l-.002.001a10.84 10.84 0 0 1-4.596 1.006h-.032.002-.025c-2.509 0-4.823-.837-6.677-2.248l.027.02v-2.87c0-.097.047-.184.102-.221l4.542-2.525c.565.48 1.287.832 2.035.832.721 0 1.499-.357 2.053-.843l4.487 2.52a.277.277 0 0 1 .131.237v2.87c-.52.395-1.108.76-1.729 1.069l-.064.029zm8.158-4.447a.202.202 0 0 1 .092.169v2.595a9.988 9.988 0 0 1-6.737 1.98c.419-.265.772-.515 1.112-.782l-.028.022a.495.495 0 0 0 .189-.39V12.86c0-.435-.218-.835-.61-1.087l-2.383-1.339.58-.321c.703.573 1.307.744 1.848.744.663 0 1.36-.325 1.878-.759l4.06 2.284zM23.216 1.788c1.38 0 2.593.902 3.021 2.142a3.698 3.698 0 0 1-2.235-1.14L24 2.788a.497.497 0 0 0-.788.082l-.001.002a3.693 3.693 0 0 1-2.525 1.757l-.022.003v-.003l.001-.079c0-.202-.012-.402-.036-.598l.002.023-.007-.066a5.31 5.31 0 0 0-.131-.647l.009.038c.563-.902 1.609-1.513 2.713-1.513zm-2.66 3.855a4.648 4.648 0 0 0 3.156-1.751l.008-.01a4.684 4.684 0 0 0 2.702 1.056c-.007 1.792-1.471 4.927-3.207 4.927-1.337 0-2.478-1.912-2.905-3.238a8.15 8.15 0 0 0 .245-.983zm.1 3.73-.885.491-.895-.503c.331-.413.636-.893.896-1.413.251.527.551 1.01.885 1.425zM19.32 6.465c-.478 1.427-1.705 3.49-3.199 3.49-1.742 0-3.225-2.864-3.508-4.696.075-.019 2.429.127 4.049-2.001.822.688 1.931 1.143 3.011 1.188.013.647-.144 1.407-.352 2.019zM16.15.991c2.78 0 3.309 2.393 3.353 2.443a4.124 4.124 0 0 1-2.561-1.274l-.002-.002a.494.494 0 0 0-.788.085l-.001.002a4.08 4.08 0 0 1-3.52 2.022h-.063.003c.136-1.822 1.596-3.274 3.58-3.274zm-3.689 6.947c.257.515.563 1.007.913 1.439l-.876.487-.907-.51c.344-.439.636-.929.869-1.415zm-3.454-6.15a3.18 3.18 0 0 1 2.729 1.514c-.029.1-.107.498-.117.548a3.682 3.682 0 0 1-1.818-1.061l-.002-.002a.494.494 0 0 0-.787.085l-.001.002a3.717 3.717 0 0 1-3.177 1.815h-.001c.158-1.627 1.518-2.9 3.173-2.9zM5.875 5.677A4.699 4.699 0 0 0 9.51 3.891l.007-.01c.57.468 1.264.806 2.026.956l.029.005c.029.575.179 1.273.351 1.789-.274.84-.799 1.84-1.451 2.505-.005.004-.01.006-.013.01-.408.43-.989.719-1.445.719-1.593 0-2.841-2.508-3.14-4.188zm-2.89 6.881c0-.075.033-.139.067-.162l4.117-2.284c.247.206.303.229.353.265.484.323.928.483 1.533.483.645 0 1.233-.273 1.749-.694.029-.023.061-.045.089-.068l.587.33-2.446 1.361a1.271 1.271 0 0 0-.584 1.069V15.976c0 .152.07.295.19.389.317.249.727.539 1.083.761a10.017 10.017 0 0 1-6.737-1.98v-2.587z"/><path fill="#ff6b09" style="fill:var(--color2, #ff6b09)" d="M31.259 20.781a2.042 2.042 0 0 0-1.102-.319c-.329 0-.641.077-.917.215l.012-.005-6.12 2.956a2.11 2.11 0 0 0-2.106-2.071l-3.51.001c-1.73-1.504-3.941-2.425-5.952-2.473-1.983-.047-3.762-.06-4.592-.064v-1.002H0v11.517h6.972v-1.379c1.911 1.097 6.939 3.845 9.325 3.845.053 0 .107-.001.157-.004 4.196-.235 14.091-7.199 14.743-7.661a2.083 2.083 0 0 0 1.034-1.795v-.006a2.06 2.06 0 0 0-.965-1.747l-.009-.005zM5.98 28.543H.992V19.01H5.98v9.533zm24.707-5.058a.303.303 0 0 0-.044.028l.001-.001c-.103.073-10.281 7.271-14.245 7.493a2.179 2.179 0 0 1-.12.003c-2.093 0-7.195-2.753-9.307-4.001V20.01c.827.003 2.596.017 4.569.064 1.837.044 3.876.921 5.455 2.345l.141.128 3.888-.001a1.119 1.119 0 0 1 0 2.238h-7.142v.992h7.142c.685 0 1.288-.333 1.673-.84l6.984-3.373a1.052 1.052 0 0 1 1.053.06l-.004-.003c.323.202.508.537.508.918a1.087 1.087 0 0 1-.548.943l-.005.003zM16.611 12.159h-.991v.919h.991v-.92zm0 1.833h-.991v.92h.991v-.92zm0 1.835h-.991v.919h.991v-.92z"/></symbol>
<symbol id="icon-right-arrow" viewBox="0 0 54 32"><path fill="#ff6b09" style="fill:var(--color2, #ff6b09)" d="M2 14a2 2 0 1 0 0 4v-4zm51.414 3.414c.362-.362.586-.862.586-1.414s-.224-1.052-.586-1.414L40.686 1.858a2 2 0 1 0-2.829 2.827l.001.001L49.172 16 37.858 27.314a2 2 0 0 0 2.829 2.827l-.001.001 12.728-12.728zM2 18h50v-4H2v4z"/></symbol>
<symbol id="icon-sheet" viewBox="0 0 31 32"><path d="m30.151 4.961-.001-.003a.284.284 0 0 0-.06-.09L25.284.062a.237.237 0 0 0-.039-.032l-.001-.001-.009-.005a.274.274 0 0 0-.034-.019l-.002-.001L25.187 0a.28.28 0 0 0-.098-.02l-.005-.001H3.913a.284.284 0 0 0-.284.284v29.311a.25.25 0 0 0 .006.055c.001.008.005.015.007.023l.009.03.013.025.013.023a.33.33 0 0 0 .032.04l.003.003 2.164 2.165a.283.283 0 0 0 .402 0l1.965-1.964 1.963 1.964c.051.052.122.084.201.084s.15-.032.201-.084l1.963-1.963 1.965 1.963a.285.285 0 0 0 .402 0l1.963-1.963 1.963 1.963a.283.283 0 0 0 .402 0l1.965-1.964 1.963 1.964c.051.052.122.084.201.084s.15-.032.201-.084l1.963-1.963 1.965 1.963a.283.283 0 0 0 .402 0l2.165-2.165c.005-.004.007-.009.011-.013.008-.009.017-.019.023-.029.007-.009.011-.02.017-.03l.009-.019c.006-.013.009-.027.012-.04l.005-.013a.256.256 0 0 0 .006-.057V5.069a.314.314 0 0 0-.023-.111l.001.002zM25.367.949l3.835 3.835h-3.835V.949zm4.237 28.507-1.88 1.88-1.965-1.964a.283.283 0 0 0-.402 0l-1.964 1.964-1.963-1.964a.283.283 0 0 0-.402 0l-1.965 1.964-1.963-1.964c-.051-.052-.122-.084-.201-.084s-.15.032-.201.084l-1.963 1.964-1.965-1.964a.283.283 0 0 0-.402 0l-1.963 1.964-1.964-1.964a.287.287 0 0 0-.402 0l-1.965 1.964-1.88-1.88V.547h20.603v4.522c0 .157.127.284.284.284h4.521v24.103z"/><path fill="#ff6b09" style="fill:var(--color2, #ff6b09)" d="M6.314 3.234h9.303a.284.284 0 1 0 0-.568H6.313a.284.284 0 1 0 0 .568zm0 1.757h14.919a.284.284 0 1 0 0-.568H6.314a.284.284 0 1 0 0 .568zM6.03 6.568v9.199c0 .157.127.284.284.284h21.173a.284.284 0 0 0 .284-.284V6.568a.284.284 0 0 0-.284-.284H6.314a.284.284 0 0 0-.284.284zm6.279.284h14.893v2.445H12.309V6.852zm0 3.013h14.893v2.444H12.309V9.865zm0 3.012h14.893v2.605H12.309v-2.605zM6.598 6.852h5.143v2.445H6.598V6.852zm0 3.013h5.143v2.444H6.598V9.865zm0 3.012h5.143v2.605H6.598v-2.605zm20.889 4.452H6.314a.284.284 0 0 0-.284.284v9.198a.284.284 0 1 0 .568 0v-2.889h5.142v2.889a.284.284 0 1 0 .568 0v-2.889h14.893v2.889a.284.284 0 1 0 .568 0v-9.199a.283.283 0 0 0-.283-.283h-.001zM11.74 23.353H6.599V20.91h5.143v2.443zm0-3.012H6.599v-2.444h5.143v2.444zm15.462 3.012H12.309V20.91h14.893v2.443zm0-3.012H12.309v-2.444h14.893v2.444zM2.281-.021a.284.284 0 0 0-.284.284v29.311a.284.284 0 1 0 .568 0V.263a.284.284 0 0 0-.284-.284H2.28zm-1.562 0H.718a.284.284 0 0 0-.284.284v29.311a.284.284 0 1 0 .568 0V.263a.284.284 0 0 0-.283-.284z"/></symbol>
<symbol id="icon-vk" viewBox="0 0 32 32"><path fill="#436eab" style="fill:var(--color3, #436eab)" d="M27.541 18.46c1.06 1.037 2.181 2.012 3.133 3.153.421.507.819 1.029 1.123 1.618.432.836.042 1.757-.709 1.807l-4.661-.002c-1.202.099-2.161-.384-2.969-1.206-.645-.658-1.243-1.358-1.863-2.037a4.456 4.456 0 0 0-.824-.736l-.015-.01c-.637-.413-1.189-.287-1.553.378-.37.675-.454 1.422-.491 2.175-.05 1.098-.382 1.387-1.485 1.437-2.356.111-4.593-.245-6.67-1.435-1.833-1.049-3.253-2.528-4.489-4.203C3.661 16.139 1.817 12.555.161 8.87c-.373-.83-.1-1.276.815-1.292 1.521-.03 3.042-.028 4.564-.002.619.009 1.027.363 1.266.947.822 2.023 1.829 3.949 3.093 5.732.336.476.679.949 1.168 1.284.541.37.953.247 1.206-.354.162-.382.233-.794.269-1.202.121-1.408.137-2.812-.075-4.213-.13-.876-.623-1.442-1.495-1.607-.446-.085-.38-.251-.164-.505.374-.439.727-.713 1.429-.713h5.269c.829.164 1.013.537 1.127 1.372l.004 5.852c-.01.323.161 1.282.743 1.495.465.153.772-.22 1.052-.515 1.262-1.339 2.162-2.922 2.965-4.56.357-.72.665-1.468.962-2.215.221-.555.565-.828 1.191-.816l5.07.004c.151 0 .303.002.448.028.855.145 1.089.512.826 1.347-.416 1.309-1.225 2.4-2.016 3.497-.846 1.169-1.749 2.3-2.589 3.477-.77 1.074-.709 1.616.247 2.549z"/></symbol>
<symbol id="icon-study-program" viewBox="0 0 31 32">
<path fill="#ff6b09" style="fill: var(--color1, #ff6b09)" d="M30.151 4.961c0-0.001-0.001-0.001-0.001-0.002-0.007-0.016-0.015-0.031-0.024-0.045-0.001-0.001-0.002-0.002-0.002-0.003-0.010-0.015-0.021-0.029-0.034-0.042l-4.806-4.806c-0.013-0.013-0.026-0.023-0.041-0.033-0.003-0.002-0.006-0.004-0.009-0.006-0.012-0.007-0.024-0.014-0.036-0.019-0.004-0.002-0.007-0.003-0.011-0.005-0.031-0.013-0.065-0.019-0.099-0.020-0.002 0-0.004-0-0.005-0h-21.172c-0.157 0-0.284 0.127-0.284 0.284v29.311c0 0.019 0.002 0.037 0.006 0.056 0.002 0.008 0.005 0.015 0.007 0.023 0.003 0.010 0.006 0.020 0.009 0.030 0.004 0.009 0.009 0.017 0.014 0.026 0.004 0.007 0.008 0.016 0.013 0.023 0.010 0.014 0.021 0.028 0.033 0.040 0.001 0.001 0.001 0.002 0.003 0.003l2.165 2.164c0.111 0.111 0.29 0.111 0.402 0l1.965-1.963 1.964 1.963c0.055 0.056 0.128 0.083 0.201 0.083s0.145-0.027 0.201-0.083l1.963-1.963 1.965 1.963c0.111 0.111 0.291 0.111 0.402 0l1.963-1.963 1.964 1.963c0.111 0.111 0.291 0.111 0.401 0l1.965-1.963 1.963 1.963c0.055 0.056 0.128 0.083 0.201 0.083s0.145-0.027 0.201-0.083l1.963-1.963 1.965 1.963c0.111 0.111 0.291 0.111 0.401 0l2.165-2.164c0.004-0.004 0.007-0.009 0.011-0.014 0.008-0.009 0.017-0.019 0.024-0.029s0.011-0.020 0.016-0.030c0.003-0.007 0.007-0.012 0.009-0.019 0.006-0.013 0.009-0.026 0.012-0.039 0.001-0.004 0.004-0.009 0.005-0.013 0.004-0.019 0.006-0.038 0.006-0.058v-24.503c-0.001-0.037-0.008-0.074-0.023-0.109zM25.367 0.949l3.836 3.835h-3.836v-3.835zM29.605 29.456l-1.88 1.88-1.965-1.963c-0.111-0.111-0.29-0.111-0.401 0l-1.963 1.963-1.963-1.963c-0.111-0.111-0.291-0.111-0.402 0l-1.965 1.963-1.963-1.962c0-0-0-0.001-0-0.001-0.055-0.055-0.128-0.083-0.201-0.083s-0.145 0.028-0.201 0.083c-0 0-0 0-0 0l-1.963 1.963-1.965-1.963c-0.111-0.111-0.29-0.111-0.402 0l-1.963 1.963-1.964-1.963c-0.111-0.111-0.29-0.111-0.402 0l-1.965 1.963-1.88-1.88v-28.909h20.603v4.522c0 0.157 0.127 0.284 0.284 0.284h4.521l0 24.103z"></path>
<path fill="#ff6b09" style="fill: var(--color1, #ff6b09)" d="M6.314 3.234h9.303c0.157 0 0.284-0.127 0.284-0.284s-0.127-0.284-0.284-0.284h-9.303c-0.157 0-0.284 0.127-0.284 0.284s0.127 0.284 0.284 0.284z"></path>
<path fill="#ff6b09" style="fill: var(--color1, #ff6b09)" d="M6.314 4.991h14.919c0.157 0 0.284-0.127 0.284-0.284s-0.127-0.284-0.284-0.284h-14.919c-0.157 0-0.284 0.127-0.284 0.284s0.127 0.284 0.284 0.284z"></path>
<path fill="#ff6b09" style="fill: var(--color1, #ff6b09)" d="M6.030 6.568v9.199c0 0.157 0.127 0.284 0.284 0.284h21.172c0.157 0 0.284-0.127 0.284-0.284v-9.199c0-0.157-0.127-0.284-0.284-0.284h-21.172c-0.157 0-0.284 0.127-0.284 0.284zM12.309 6.852h14.893v2.445h-14.893v-2.445zM12.309 9.865h14.893v2.444h-14.893v-2.444zM12.309 12.877h14.893v2.605h-14.893v-2.605zM6.598 6.852h5.142v2.445h-5.142v-2.445zM6.598 9.865h5.142v2.444h-5.142v-2.444zM6.598 12.877h5.142v2.605h-5.142v-2.605z"></path>
<path fill="#ff6b09" style="fill: var(--color1, #ff6b09)" d="M27.486 17.329h-21.172c-0.157 0-0.284 0.127-0.284 0.284v9.198c0 0.157 0.127 0.284 0.284 0.284s0.284-0.127 0.284-0.284v-2.889h5.142v2.889c0 0.157 0.127 0.284 0.284 0.284s0.284-0.127 0.284-0.284v-2.889h14.893v2.889c0 0.157 0.127 0.284 0.284 0.284s0.284-0.127 0.284-0.284v-9.198c0.001-0.157-0.126-0.284-0.283-0.284zM11.741 23.354h-5.142v-2.443h5.142v2.443zM11.741 20.342h-5.142v-2.444h5.142v2.444zM27.202 23.354h-14.893v-2.443h14.893v2.443zM27.202 20.342h-14.893v-2.444h14.893v2.444z"></path>
<path fill="#ff6b09" style="fill: var(--color1, #ff6b09)" d="M2.281-0.021c-0.157 0-0.284 0.127-0.284 0.284v29.311c0 0.157 0.127 0.284 0.284 0.284s0.284-0.127 0.284-0.284v-29.311c0-0.157-0.127-0.284-0.284-0.284z"></path>
<path fill="#ff6b09" style="fill: var(--color1, #ff6b09)" d="M0.718-0.021c-0.157 0-0.284 0.127-0.284 0.284v29.311c0 0.157 0.127 0.284 0.284 0.284s0.284-0.127 0.284-0.284v-29.311c0-0.157-0.127-0.284-0.284-0.284z"></path>
</symbol>
<symbol id="icon-audio-book" viewBox="0 0 39 32">
<path fill="#ff6b09" style="fill: var(--color1, #ff6b09)" d="M3.047 29.453h12.23c0.62 1.285 1.917 2.116 3.38 2.116h0.772c1.465 0 2.761-0.83 3.381-2.116h12.237c1.26 0 2.286-1.025 2.286-2.286v-21.905c0-1.26-1.025-2.286-2.286-2.286h-1.234v-1.021c0-0.84-0.684-1.524-1.524-1.524h-26.491c-0.84 0-1.524 0.683-1.524 1.524v1.021h-1.227c-1.26 0-2.286 1.025-2.286 2.286v21.905c0 1.26 1.025 2.286 2.286 2.286zM32.288 24.752h-12.478v-17.705c2.884 0.377 5.121 2.845 5.121 5.831v0.687l-0.181-0.040c-0.196-0.042-0.403-0.007-0.574 0.102s-0.291 0.281-0.334 0.478l-1.213 5.519c-0.090 0.41 0.17 0.816 0.58 0.907l2.621 0.578c0.135 0.029 0.273 0.043 0.411 0.043 0.922 0 1.707-0.631 1.908-1.535l0.702-3.192c0.231-1.048-0.433-2.090-1.484-2.324l-0.912-0.201v-1.023c0-3.827-2.917-6.986-6.644-7.37v-3.551h12.48l-0.002 22.796zM25.166 15.177l1.871 0.412c0.234 0.052 0.376 0.275 0.325 0.508l-0.702 3.191c-0.051 0.231-0.306 0.374-0.507 0.331l-1.873-0.413 0.886-4.030zM5.798 1.956h12.487v3.55c-3.731 0.381-6.652 3.541-6.652 7.371v1.022l-0.914 0.202c-0.509 0.113-0.943 0.416-1.222 0.854-0.281 0.439-0.373 0.961-0.26 1.468l0.7 3.188c0.19 0.892 0.993 1.54 1.909 1.54 0.138 0 0.275-0.015 0.416-0.045l2.61-0.577c0.41-0.091 0.67-0.496 0.58-0.907l-1.213-5.519c-0.043-0.198-0.164-0.37-0.334-0.478s-0.378-0.144-0.574-0.102l-0.174 0.038v-0.686c0-2.988 2.24-5.458 5.128-5.832v17.706h-12.487v-22.796zM12.916 15.177l0.887 4.029-1.863 0.411c-0.229 0.052-0.463-0.1-0.512-0.328l-0.702-3.196c-0.025-0.111-0.005-0.224 0.055-0.319 0.061-0.096 0.157-0.162 0.268-0.187l1.867-0.412zM2.286 5.262c0-0.42 0.342-0.762 0.762-0.762h1.227v20.252c0 0.84 0.684 1.524 1.524 1.524h26.491c0.84 0 1.524-0.683 1.524-1.524v-20.252h1.234c0.42 0 0.762 0.342 0.762 0.762v21.905c0 0.42-0.342 0.762-0.762 0.762h-12.754c-0.335 0-0.63 0.218-0.728 0.538-0.289 0.943-1.147 1.577-2.135 1.577h-0.772c-0.984 0-1.841-0.631-2.138-1.586-0.101-0.315-0.394-0.529-0.725-0.529h-12.747c-0.42 0-0.762-0.342-0.762-0.762v-21.905z"></path>
</symbol>
<symbol id="icon-student" viewBox="0 0 27 32">
<path fill="#ff6b09" style="fill: var(--color1, #ff6b09)" d="M-0.102 31.759c3.441 0 23.348 0 26.785 0 0.133-3.055-0.086-8.122-1.964-10.535l-0.068-0.087-4.104-2.060c0.089-0.301 0.133-0.576 0.151-0.778 0.020-0.243-0.013-0.471-0.1-0.678-0.677-1.62-2.11-2.472-2.898-2.836 0.24-0.484 0.395-1.003 0.47-1.534 0.446-0.126 0.805-0.479 0.923-0.951l0.479-1.946c0.085-0.343 0.032-0.699-0.151-1.002-0.079-0.131-0.18-0.24-0.294-0.334 1.351-3.068-0.911-5.96-1.035-6.113-2.45-2.649-5.545-2.153-5.708-2.124-4.466 0.935-6.19 4.358-5.217 8.372-0.288 0.319-0.409 0.764-0.302 1.2l0.481 1.948c0.117 0.468 0.473 0.82 0.916 0.948 0.137 0.972 0.548 1.851 1.152 2.559v1.543c-6.409 3.282-2.348 1.188-7.484 3.786-0.010 0.048-2.41 2.599-2.053 10.159l0.022 0.462zM25.752 30.789h-4.408v-1.852l2.916-6.675c1.461 2.424 1.515 7.053 1.493 8.526zM19.735 18.216c-0.17 1.954-1.242 1.364-1.903 2.869-0.52-0.572-0.677-1.258-0.537-1.993 0.253-1.349-0.57-1.749-0.367-3.166l0.031-0.032v-0.005c0.017-0.020 0.18-0.213 0.227-0.274 1.744 0.76 2.584 2.174 2.55 2.6zM10.379 16.68c0.81 0.562 1.787 0.893 2.838 0.893 0.99 0 1.93-0.288 2.736-0.819 0.112 1.114 0.547 1.337 0.393 2.157-0.029 0.152-0.045 0.302-0.054 0.45l-3.002 3.384-3.838-4.327 0.926-0.484v-1.254zM9.172 12.54v-1.876c0-0.691 0-3.431 0-3.296 0.467-0.864 1.104-1.491 1.896-1.866 2.12 1.2 4.56 2.99 6.197 4.791-0.002 2.294 0.006 2.301-0.009 2.489l-0.001 0.012c-0.128 2.083-1.841 3.811-4.038 3.811-2.136 0-3.909-1.677-4.037-3.831-0.007-0.077-0.008-0.155-0.008-0.233zM8.574 18.886l4.716 5.317 3.166-3.569c0.072 0.208 0.174 0.405 0.29 0.595l-3.456 4.322-5.154-6.446 0.438-0.22zM18.23 11.759v-1.498c0.042-0.049 0.402-0.461 0.36-0.413 0.020 0.758 0.102-0.137-0.36 1.911zM12.562 1.734c0.192 0.012 2.765-0.391 4.799 1.804 0.080 0.1 1.736 2.234 1.071 4.567-0.228-1.038-0.624-2.369-1.252-3.004l-0.685 0.683c0.619 0.627 1.026 2.537 1.181 3.527-2.84-2.972-6.504-4.853-6.555-4.885-0.184 0.114-1.734 0.409-2.86 2.598l-0.054 0.105v1.607c-0.048 0.001-0.19 0.002-0.142 0.002-0.716-3.454 0.655-6.198 4.497-7.004zM7.963 9.736l0.244 0.987v1.038l-0.405-1.639c-0.059-0.244 0.122-0.337 0.161-0.386zM7.253 19.55l6.038 7.551 4.085-5.109c0.444 0.398 0.658 0.454 1.6 0.939l-0.318-1.078c-0.081-0.274 0.239-0.713 0.431-0.914 0.43-0.233 0.789-0.566 1.058-0.977l3.333 1.674-3.101 7.1v2.055h-14.176v-2.055l-3.103-7.099 4.153-2.085zM2.321 22.265l2.916 6.673v1.852h-4.408c-0.022-1.473 0.033-6.099 1.492-8.524z"></path>
</symbol>
<symbol id="icon-book" viewBox="0 0 46 32">
<path fill="#ff6b09" style="fill: var(--color1, #ff6b09)" d="M20.267 4.608h-13.64v1.021h13.64v-1.021z"></path>
<path fill="#ff6b09" style="fill: var(--color1, #ff6b09)" d="M20.266 8.416h-11.597v1.021h11.597v-1.021z"></path>
<path fill="#ff6b09" style="fill: var(--color1, #ff6b09)" d="M20.267 12.224h-13.64v1.021h13.64v-1.021z"></path>
<path fill="#ff6b09" style="fill: var(--color1, #ff6b09)" d="M20.266 16.032h-11.597v1.021h11.597v-1.021z"></path>
<path fill="#ff6b09" style="fill: var(--color1, #ff6b09)" d="M20.267 19.84h-13.64v1.021h13.64v-1.021z"></path>
<path fill="#ff6b09" style="fill: var(--color1, #ff6b09)" d="M20.266 23.648h-11.597v1.021h11.597v-1.021z"></path>
<path fill="#ff6b09" style="fill: var(--color1, #ff6b09)" d="M38.99 4.608h-13.64v1.021h13.64v-1.021z"></path>
<path fill="#ff6b09" style="fill: var(--color1, #ff6b09)" d="M36.947 8.416h-11.597v1.021h11.597v-1.021z"></path>
<path fill="#ff6b09" style="fill: var(--color1, #ff6b09)" d="M38.99 12.224h-13.64v1.021h13.64v-1.021z"></path>
<path fill="#ff6b09" style="fill: var(--color1, #ff6b09)" d="M36.947 16.032h-11.597v1.021h11.597v-1.021z"></path>
<path fill="#ff6b09" style="fill: var(--color1, #ff6b09)" d="M38.99 19.84h-13.64v1.021h13.64v-1.021z"></path>
<path fill="#ff6b09" style="fill: var(--color1, #ff6b09)" d="M36.947 23.648h-11.597v1.021h11.597v-1.021z"></path>
<path fill="#ff6b09" style="fill: var(--color1, #ff6b09)" d="M43.915 3.445h-1.872v-2.812c0-0.282-0.229-0.511-0.511-0.511h-15.265c-1.49 0-2.781 0.805-3.458 2.011-0.678-1.206-1.97-2.011-3.459-2.011h-15.265c-0.282 0-0.511 0.229-0.511 0.511v2.812h-1.872c-0.282 0-0.511 0.229-0.511 0.511v27.411c0 0.282 0.229 0.511 0.511 0.511 5.127 0 37.068 0 42.213 0 0.282 0 0.511-0.229 0.511-0.511v-27.411c0-0.282-0.229-0.511-0.511-0.511zM26.267 1.144h14.754c0 4.573 0 16.619 0 27.35h-15.843c-0.702 0-1.405 0.296-1.859 0.68v-25.089c0-1.63 1.305-2.942 2.948-2.942zM4.596 1.144h14.754c1.597 0 2.889 1.243 2.942 2.829 0.001 0.022 0.003 0.091 0.006 0.112v25.087c-0.453-0.382-1.148-0.678-1.852-0.678h-15.85c0-10.728 0-22.779 0-27.35zM2.213 4.467h1.362v24.538c0 0.282 0.229 0.511 0.511 0.511h16.361c0.778 0 1.531 0.511 1.771 1.341h-20.005v-26.39zM43.404 30.856h-20.004c0.242-0.834 0.987-1.341 1.778-1.341h16.354c0.282 0 0.511-0.229 0.511-0.511v-24.538h1.362v26.39z"></path>
</symbol>
<symbol id="icon-learning" viewBox="0 0 33 32">
<path fill="#ff6b09" style="fill: var(--color1, #ff6b09)" d="M30.175-0.128h-15.746c-1.025 0-1.859 0.834-1.859 1.859v6.518l-11.698 4.91c-0.132 0.056-0.222 0.181-0.233 0.324s0.061 0.28 0.184 0.354l1.492 0.893v9.515c-0.763 0.174-1.335 0.857-1.335 1.674v0.917c0 0.21 0.171 0.381 0.381 0.381h2.671c0.21 0 0.381-0.171 0.381-0.381v-0.917c0-0.816-0.573-1.498-1.336-1.673v-9.060l1.18 0.706c-0.036 0.272-0.005-0.474-0.017 4.43 0 1.612 4.129 2.476 8.33 2.525v7.425c0 0.384 0.117 0.74 0.318 1.036 0.334 0.494 0.9 0.82 1.54 0.82h15.746c1.024 0 1.857-0.833 1.857-1.857 0 0.051-0.002-1.573 0-28.54 0-1.011-0.836-1.859-1.856-1.859zM3.652 25.918v0.536h-1.909v-0.536c0-0.528 0.427-0.957 0.952-0.957 0.528 0 0.957 0.43 0.957 0.957zM30.175 31.364h-15.746c-0.378 0-0.712-0.191-0.909-0.482-0.118-0.175-0.187-0.385-0.187-0.612v-2.574h17.935v2.575c0 0.597-0.497 1.092-1.092 1.092zM31.268 26.935h-17.935v-4.086c2.051-0.023 8.335-0.475 8.335-2.527-0.002-3.081 0.005-4.33-0.010-4.436l3.421-2.049c0.123-0.074 0.194-0.211 0.184-0.354s-0.1-0.268-0.233-0.324l-11.698-4.91v-3.182h17.935v21.868zM12.951 17.792c-2.113 0-6.182 0.273-7.949 1.427 0.011-3.53-0.122-3.3 0.312-3.6 1.098-0.809 4.238-1.373 7.637-1.373 1.482 0 7.954 0.408 7.954 1.778v3.195c-1.784-1.165-5.832-1.428-7.954-1.428zM13.333 1.731c0-0.604 0.491-1.095 1.095-1.095h15.746c0.604 0 1.093 0.498 1.093 1.095v2.574h-17.935v-2.574zM12.951 8.915l11.090 4.655-2.748 1.644c-1.461-1.449-6.294-1.73-8.342-1.73-2.051 0-6.884 0.282-8.342 1.73l-2.749-1.645 11.091-4.655zM5.002 20.321c0-0.617 2.73-1.767 7.949-1.767 5.222 0 7.954 1.151 7.954 1.767s-2.732 1.768-7.954 1.768c-5.219 0-7.949-1.151-7.949-1.768z"></path>
<path fill="#ff6b09" style="fill: var(--color1, #ff6b09)" d="M22.301 28.271c-0.695 0-1.26 0.565-1.26 1.26s0.565 1.26 1.26 1.26c0.695 0 1.26-0.566 1.26-1.26s-0.565-1.26-1.26-1.26zM22.301 30.030c-0.275 0-0.498-0.224-0.498-0.499s0.224-0.498 0.498-0.498c0.275 0 0.498 0.223 0.498 0.498s-0.223 0.499-0.498 0.499z"></path>
<path fill="#ff6b09" style="fill: var(--color1, #ff6b09)" d="M23.755 2.090h-2.906v0.762h2.906v-0.762z"></path>
</symbol>
<symbol id="icon-group" viewBox="0 0 33 32">
<path fill="#ff6b09" style="fill: var(--color1, #ff6b09)" d="M1.994 12.558v2.831c0 0.152 0.070 0.295 0.189 0.39 1.935 1.523 4.363 2.362 6.837 2.362 0.74 0 1.482-0.077 2.206-0.224 1.544 0.683 3.188 1.032 4.89 1.032 1.707 0 3.351-0.349 4.89-1.032 3.091 0.624 6.384-0.046 9.042-2.138 0.12-0.094 0.189-0.238 0.189-0.39v-2.831c0-0.416-0.206-0.794-0.575-1.027l-3.867-2.176c0.846-1.073 1.476-2.602 1.586-3.913 0.321-2.256-1.518-4.646-4.165-4.646-1.113 0-2.171 0.458-2.948 1.227-0.027 0.027-0.058 0.049-0.084 0.076-0.024 0.025-0.043 0.054-0.067 0.080-0.016 0.017-0.029 0.036-0.044 0.053-0.757-1.38-2.211-2.232-3.924-2.232-0.166 0-0.33 0.011-0.492 0.028-0.010-0.001-0.018-0.006-0.028-0.006-0.092 0-0.287 0.024-0.391 0.054-0.015 0.004-0.026 0.015-0.041 0.021-1.279 0.259-2.363 1.034-3.013 2.156-0.781-0.911-1.93-1.457-3.179-1.457-3.908 0-5.642 4.612-2.557 8.581l-3.903 2.167c-0.346 0.219-0.553 0.598-0.553 1.014zM20.997 16.828c-0.084 0.041-0.167 0.085-0.251 0.123l-0 0c-0.001 0-0.001 0.001-0.002 0.001-1.452 0.667-3.009 1.006-4.627 1.006-1.613 0-3.17-0.338-4.629-1.007-0.71-0.323-1.397-0.734-2.045-1.221v-2.87c0-0.098 0.047-0.184 0.102-0.221l4.542-2.524c0.565 0.48 1.287 0.832 2.035 0.832 0.721 0 1.499-0.357 2.052-0.843l4.487 2.52c0.083 0.053 0.13 0.139 0.13 0.237v2.87c-0.571 0.429-1.173 0.795-1.794 1.098zM29.154 12.382c0.059 0.037 0.092 0.101 0.092 0.176v2.587c-1.969 1.477-4.337 2.148-6.737 1.98 0.369-0.23 0.771-0.516 1.083-0.76 0.12-0.094 0.19-0.238 0.19-0.39v-3.114c0-0.435-0.218-0.835-0.61-1.087l-2.383-1.339 0.58-0.321c0.703 0.573 1.307 0.744 1.848 0.744 0.662 0 1.36-0.325 1.878-0.759l4.060 2.284zM23.217 1.788c1.38 0 2.593 0.902 3.021 2.142-0.833-0.099-1.647-0.51-2.237-1.142-0.107-0.114-0.258-0.173-0.415-0.155-0.155 0.016-0.293 0.105-0.373 0.239-0.566 0.948-1.493 1.58-2.548 1.76 0-0.001-0-0.002-0-0.003 0.005-0.216-0.008-0.434-0.033-0.653-0.003-0.022-0.005-0.044-0.007-0.067-0.032-0.248-0.107-0.559-0.122-0.609 0.563-0.902 1.609-1.513 2.713-1.513zM20.556 5.644c1.253-0.137 2.386-0.767 3.164-1.762 0.767 0.629 1.74 1.010 2.702 1.056-0.007 1.792-1.471 4.927-3.206 4.927-1.337 0-2.479-1.912-2.905-3.238 0.108-0.341 0.187-0.669 0.245-0.983zM20.657 9.373l-0.886 0.491-0.895-0.502c0.332-0.413 0.636-0.893 0.896-1.413 0.25 0.526 0.55 1.010 0.884 1.425zM19.32 6.465c-0.478 1.427-1.705 3.49-3.199 3.49-1.742 0-3.226-2.864-3.509-4.696 0.075-0.019 2.43 0.126 4.050-2.001 0.822 0.688 1.932 1.143 3.011 1.188 0.013 0.647-0.144 1.406-0.352 2.018zM16.15 0.992c2.78 0 3.309 2.392 3.352 2.442-1.008-0.102-1.928-0.596-2.563-1.276-0.107-0.114-0.262-0.171-0.416-0.154-0.155 0.017-0.293 0.106-0.373 0.241-0.551 0.932-1.414 1.589-2.414 1.868-0.386 0.108-0.803 0.157-1.166 0.154 0.136-1.822 1.596-3.274 3.58-3.274zM12.461 7.938c0.257 0.515 0.563 1.006 0.913 1.438l-0.875 0.487-0.907-0.51c0.344-0.438 0.636-0.929 0.87-1.415zM9.006 1.788c1.125 0 2.155 0.571 2.729 1.514-0.029 0.1-0.106 0.498-0.117 0.548-0.69-0.165-1.324-0.533-1.821-1.062-0.107-0.114-0.258-0.17-0.416-0.154-0.155 0.017-0.293 0.106-0.372 0.24-0.663 1.119-1.881 1.815-3.177 1.815 0.158-1.627 1.518-2.9 3.174-2.9zM5.876 5.678c1.425-0.014 2.77-0.686 3.642-1.796 0.596 0.491 1.304 0.813 2.056 0.961 0.029 0.575 0.179 1.273 0.35 1.789-0.274 0.84-0.799 1.841-1.451 2.505-0.004 0.004-0.010 0.006-0.014 0.010-0.408 0.43-0.988 0.719-1.444 0.719-1.594 0-2.841-2.508-3.14-4.188zM2.985 12.558c0-0.075 0.033-0.139 0.067-0.162l4.116-2.284c0.247 0.206 0.304 0.229 0.353 0.265l-0 0c0.484 0.322 0.928 0.482 1.534 0.482 0.645 0 1.232-0.273 1.749-0.694 0.029-0.023 0.060-0.045 0.088-0.068l0.587 0.33-2.446 1.361c-0.366 0.236-0.584 0.636-0.584 1.071v3.114c0 0.152 0.070 0.296 0.19 0.39 0.317 0.249 0.727 0.539 1.083 0.761-2.434 0.166-4.803-0.528-6.737-1.98v-2.587z"></path>
<path fill="#ff6b09" style="fill: var(--color1, #ff6b09)" d="M31.259 20.781c-0.61-0.383-1.361-0.423-2.007-0.11l-6.119 2.956c-0.021-1.145-0.956-2.071-2.107-2.071l-3.509 0.001c-1.73-1.504-3.941-2.425-5.952-2.473-1.983-0.047-3.763-0.060-4.593-0.064v-1.002h-6.972v11.517h6.972v-1.379c1.912 1.097 6.939 3.845 9.325 3.845 0.054 0 0.107-0.001 0.158-0.004 4.196-0.235 14.091-7.198 14.743-7.661 0.638-0.37 1.034-1.056 1.034-1.796 0-0.719-0.364-1.376-0.973-1.758zM5.98 28.542h-4.988v-9.533h4.988v9.533zM30.687 23.484c-0.015 0.008-0.030 0.017-0.044 0.028-0.102 0.073-10.281 7.271-14.244 7.494-0.039 0.002-0.079 0.003-0.121 0.003-2.092 0-7.194-2.753-9.307-4.001v-6.997c0.827 0.004 2.597 0.017 4.569 0.064 1.837 0.044 3.876 0.921 5.456 2.346l0.141 0.128 3.887-0.001c0.617 0 1.119 0.502 1.119 1.119s-0.502 1.119-1.119 1.119h-7.142v0.992h7.142c0.684 0 1.288-0.333 1.674-0.839l6.984-3.373c0.343-0.167 0.725-0.146 1.049 0.057s0.508 0.537 0.508 0.918c0 0.391-0.212 0.753-0.553 0.945z"></path>
<path fill="#ff6b09" style="fill: var(--color1, #ff6b09)" d="M16.612 12.159h-0.992v0.92h0.992v-0.92z"></path>
<path fill="#ff6b09" style="fill: var(--color1, #ff6b09)" d="M16.612 13.992h-0.992v0.92h0.992v-0.92z"></path>
<path fill="#ff6b09" style="fill: var(--color1, #ff6b09)" d="M16.612 15.826h-0.992v0.92h0.992v-0.92z"></path>
</symbol>
</defs></svg>